<?xml version="1.0" standalone="no"?>
<!DOCTYPE svg PUBLIC "-//W3C//DTD SVG 1.1//EN" "http://www.w3.org/Graphics/SVG/1.1/DTD/svg11.dtd" >
<svg>
<metadata>
Created by FontForge 20090622 at Wed May  9 10:25:58 2018
 By deploy user
Copyright &#194;&#169; 2015 Boutros International. All rights reserved
</metadata>
<defs>
<font id="GEDinkum-Bold" horiz-adv-x="0" >
  <font-face 
    font-family="GE Dinkum Medium"
    font-weight="700"
    font-stretch="normal"
    units-per-em="1000"
    panose-1="0 0 8 0 0 0 0 0 0 0"
    ascent="800"
    descent="-200"
    bbox="-119 -411 1435 1062"
    underline-thickness="50"
    underline-position="-50"
    unicode-range="U+0020-U+FEFC"
  />
<missing-glyph horiz-adv-x="443" 
d="M363 645v-885h-281v885h281zM295 586h-146v-29h57v-33h-58v-29h147v29h-59v33h59v29zM236 472h-88v-92h147v30h-59v62zM206 441v-31h-29v31h29zM295 356h-147v-30h58v-32h-58v-30h88v62h59v30zM295 303h-29v-59h-118v-30h147v89zM295 195h-89v-50h30v20h30v-41h-89v71
h-29v-100h147v100zM295 41h-147v-100h147v100zM266 12v-41h-89v41h89zM295 -79h-147v-29h62l-62 -42v-29h147v29h-91l62 42h29v29z" />
    <glyph glyph-name="uniFDF2" unicode="&#x627;&#xfedf;&#xfee0;&#xfeea;" horiz-adv-x="1430" arabic-form="isolated" 
d="M752 1062v-173l-70 -38v172zM665 654q-35 -1 -60.5 20t-25.5 58v43l70 39v-78q0 -14 17 -14q16 0 16 13v51l70 39v-90q0 -13 16 -13t16 14v60l71 39v-103q0 -36 -25.5 -57t-61.5 -21q-31 0 -52 14q-22 -14 -51 -14zM1234 578l126 67v-645h-126v578zM1007 209v303l126 67
v-371q0 -91 -53.5 -149.5t-149.5 -58.5h-99q-78 0 -127 44q-53 -44 -135 -44h-98q-86 0 -137 54q-45 -38 -112 -38q-86 0 -139 59.5t-53 146.5q0 92 56 152t133 60q37 0 68 -14v27l125 66v-320q0 -39 16.5 -55.5t54.5 -16.5h79q46 0 65.5 20t19.5 68v303l126 67v-386
q0 -39 16 -55.5t54 -16.5h80q46 0 65 20t19 68zM229 123q40 0 61 28q-3 17 -3 36v107q-25 22 -59 22t-54 -27.5t-20 -69.5q0 -43 19.5 -69.5t55.5 -26.5z" />
    <glyph glyph-name="uniFEF5" unicode="&#xfedf;&#xfe82;" horiz-adv-x="670" arabic-form="isolated" 
d="M217 597q-18 0 -48 -35l-43 38q45 58 90 58q22 0 56.5 -19.5t47.5 -19.5q17 0 49 35l42 -39q-46 -57 -91 -57q-21 0 -55.5 19.5t-47.5 19.5zM475 578l125 67v-437q0 -91 -53.5 -149.5t-149.5 -58.5h-377l63 121h132v327l126 67v-394h49q46 0 65.5 20t19.5 68v369z" />
    <glyph glyph-name="uniFEF6" unicode="&#xfee0;&#xfe82;" horiz-adv-x="731" arabic-form="final" 
d="M217 597q-18 0 -48 -35l-43 38q45 58 90 58q22 0 56.5 -19.5t47.5 -19.5q17 0 49 35l42 -39q-46 -57 -91 -57q-21 0 -55.5 19.5t-47.5 19.5zM671 121h70v-121h-82q-78 0 -127 44q-55 -44 -135 -44h-377l63 121h132v327l126 67v-394h49q46 0 65.5 20t19.5 68v369l125 67
v-202l1 1v-251q0 -39 16 -55.5t54 -16.5z" />
    <glyph glyph-name="uniFEF7" unicode="&#xfedf;&#xfe84;" horiz-adv-x="670" arabic-form="isolated" 
d="M392 636l-31 -58h-190l32 58h29q-14 28 -9.5 54t24.5 44q21 20 52 21t63 -24v-58q-23 21 -46.5 23.5t-30.5 -8.5q-21 -21 5 -52h102zM475 578l125 67v-437q0 -91 -53.5 -149.5t-149.5 -58.5h-377l63 121h132v327l126 67v-394h49q46 0 65.5 20t19.5 68v369z" />
    <glyph glyph-name="uniFEF8" unicode="&#xfee0;&#xfe84;" horiz-adv-x="731" arabic-form="final" 
d="M392 636l-31 -58h-190l32 58h29q-14 28 -9.5 54t24.5 44q21 20 52 21t63 -24v-58q-23 21 -46.5 23.5t-30.5 -8.5q-21 -21 5 -52h102zM671 121h70v-121h-82q-78 0 -127 44q-55 -44 -135 -44h-377l63 121h132v327l126 67v-394h49q46 0 65.5 20t19.5 68v369l125 67v-202l1 1
v-251q0 -39 16 -55.5t54 -16.5z" />
    <glyph glyph-name="uniFEF9" unicode="&#xfedf;&#xfe88;" horiz-adv-x="670" arabic-form="isolated" 
d="M475 578l125 67v-437q0 -91 -53.5 -149.5t-149.5 -58.5h-377l63 121h132v327l126 67v-394h49q46 0 65.5 20t19.5 68v369zM278 -121q-21 -21 5 -52h102l-31 -58h-190l32 58h29q-14 28 -9.5 54t24.5 44q21 20 52 21t63 -24v-58q-23 21 -46.5 23.5t-30.5 -8.5z" />
    <glyph glyph-name="uniFEFA" unicode="&#xfee0;&#xfe88;" horiz-adv-x="731" arabic-form="final" 
d="M671 121h70v-121h-82q-78 0 -127 44q-55 -44 -135 -44h-377l63 121h132v327l126 67v-394h49q46 0 65.5 20t19.5 68v369l125 67v-202l1 1v-251q0 -39 16 -55.5t54 -16.5zM278 -121q-21 -21 5 -52h102l-31 -58h-190l32 58h29q-14 28 -9.5 54t24.5 44q21 20 52 21t63 -24
v-58q-23 21 -46.5 23.5t-30.5 -8.5z" />
    <glyph glyph-name="uniFEFB" unicode="&#xfedf;&#xfe8e;" horiz-adv-x="670" arabic-form="isolated" 
d="M475 578l125 67v-437q0 -91 -53.5 -149.5t-149.5 -58.5h-377l63 121h132v327l126 67v-394h49q46 0 65.5 20t19.5 68v369z" />
    <glyph glyph-name="uniFEFC" unicode="&#xfee0;&#xfe8e;" horiz-adv-x="731" arabic-form="final" 
d="M671 121h70v-121h-82q-78 0 -127 44q-55 -44 -135 -44h-377l63 121h132v327l126 67v-394h49q46 0 65.5 20t19.5 68v369l125 67v-202l1 1v-251q0 -39 16 -55.5t54 -16.5z" />
    <glyph glyph-name="uni066E.init" unicode="&#x66e;" horiz-adv-x="326" 
d="M-10 0v121h70q38 0 54 16.5t16 55.5v185l126 66v-257q0 -85 -49.5 -136t-134.5 -51h-82z" />
    <glyph glyph-name="uni066E.medi" unicode="&#x66e;" horiz-adv-x="386" 
d="M326 121h70v-121h-82q-73 0 -121 39q-48 -39 -121 -39h-82v121h70q38 0 54 16.5t16 55.5v185l126 66v-251q0 -39 16 -55.5t54 -16.5z" />
    <glyph glyph-name="uni066E.fina" unicode="&#x66e;" horiz-adv-x="918" 
d="M858 121h70v-121h-82q-74 0 -121 39q-48 -39 -122 -39h-357q-79 0 -127.5 51t-48.5 135v102l125 66v-160q0 -40 16.5 -56.5t54.5 -16.5h326q38 0 54 16.5t16 56.5v184l126 66v-251q0 -39 16 -55.5t54 -16.5z" />
    <glyph glyph-name="uniFB57" unicode="&#x67e;" horiz-adv-x="918" arabic-form="final" 
d="M858 121h70v-121h-82q-74 0 -121 39q-48 -39 -122 -39h-357q-79 0 -127.5 51t-48.5 135v102l125 66v-160q0 -40 16.5 -56.5t54.5 -16.5h326q38 0 54 16.5t16 56.5v184l126 66v-251q0 -39 16 -55.5t54 -16.5zM430 -176q0 -30 -17.5 -48t-47.5 -18t-48 18t-18 48t18 48.5
t48 18.5t47.5 -18.5t17.5 -48.5zM519 -109q30 0 47.5 -18.5t17.5 -48.5t-17.5 -48t-47.5 -18t-48 18t-18 48t18 48.5t48 18.5zM441 -257q28 0 44 -16.5t16 -44.5q0 -27 -16 -43.5t-44 -16.5t-44.5 16t-16.5 44t16.5 44.5t44.5 16.5z" />
    <glyph glyph-name="uniFB58" unicode="&#x67e;" horiz-adv-x="333" arabic-form="initial" 
d="M-10 0v121h70q38 0 54 16.5t16 55.5v185l126 66v-257q0 -85 -49.5 -136t-134.5 -51h-82zM15 -222q-29 0 -47.5 18t-18.5 48t18.5 48.5t47.5 18.5q30 0 47.5 -18.5t17.5 -48.5t-17.5 -48t-47.5 -18zM169 -222q-30 0 -48 18t-18 48t18 48.5t48 18.5t47.5 -18.5t17.5 -48.5
t-17.5 -48t-47.5 -18zM91 -358q-28 0 -44 16t-16 44t16 44.5t44 16.5t44.5 -16.5t16.5 -44.5q0 -27 -16.5 -43.5t-44.5 -16.5z" />
    <glyph glyph-name="uniFB59" unicode="&#x67e;" horiz-adv-x="386" arabic-form="medial" 
d="M326 121h70v-121h-82q-73 0 -121 39q-48 -39 -121 -39h-82v121h70q38 0 54 16.5t16 55.5v185l126 66v-251q0 -39 16 -55.5t54 -16.5zM118 -156q0 -30 -17.5 -48t-47.5 -18t-48 18t-18 48t18 48.5t48 18.5t47.5 -18.5t17.5 -48.5zM207 -89q30 0 47.5 -18.5t17.5 -48.5
t-17.5 -48t-47.5 -18t-48 18t-18 48t18 48.5t48 18.5zM129 -237q27 0 43 -16.5t16 -43.5t-16 -43t-43 -16t-43.5 16t-16.5 43q0 28 16.5 44t43.5 16z" />
    <glyph glyph-name="uniFB6B" unicode="&#x6a4;" horiz-adv-x="979" arabic-form="final" 
d="M695 679q-28 0 -44 16.5t-16 44.5q0 27 16 43t44 16t43.5 -16t15.5 -43q0 -28 -15.5 -44.5t-43.5 -16.5zM619 532q-30 0 -48 18t-18 49q0 30 18 47.5t48 17.5t47.5 -18t17.5 -47q0 -30 -17.5 -48.5t-47.5 -18.5zM707 599q0 30 18 47.5t48 17.5t47.5 -18t17.5 -47
q0 -30 -17.5 -48.5t-47.5 -18.5t-48 18t-18 49zM854 121h135v-121h-215q-49 0 -80 7q-29 -7 -80 -7h-368q-79 0 -127.5 51t-48.5 135v102l125 66v-160q0 -40 16.5 -56.5t54.5 -16.5h269q-38 61 -38 124q0 93 52.5 154.5t144.5 61.5t145 -61.5t53 -154.5q0 -63 -38 -124z
M694 344q-37 0 -56.5 -25t-19.5 -66q0 -36 20 -70.5t56 -50.5q36 16 56 50.5t20 69.5q0 41 -19.5 66.5t-56.5 25.5z" />
    <glyph glyph-name="uniFB6C" unicode="&#x6a4;" horiz-adv-x="543" arabic-form="initial" 
d="M302 679q-28 0 -44 16.5t-16 44.5q0 27 16 43t44 16t43.5 -16t15.5 -43q0 -28 -15.5 -44.5t-43.5 -16.5zM226 532q-30 0 -48 18t-18 49q0 30 18 47.5t48 17.5t47.5 -18t17.5 -47q0 -30 -17.5 -48.5t-47.5 -18.5zM380 532q-30 0 -48 18t-18 49q0 30 18 47.5t48 17.5
t47.5 -18t17.5 -47q0 -30 -17.5 -48.5t-47.5 -18.5zM-10 0v121h140q-30 44 -30 110q0 103 54 166.5t147 63.5q83 0 132.5 -50t49.5 -135v-90q-1 -80 -47.5 -133t-136.5 -53h-309zM298 121q59 0 59 64v93q0 66 -56 66q-37 0 -57 -29.5t-20 -79.5q0 -53 19 -83.5t55 -30.5z
" />
    <glyph glyph-name="uniFB6D" unicode="&#x6a4;" horiz-adv-x="575" arabic-form="medial" 
d="M288 679q-28 0 -44 16.5t-16 44.5q0 27 16 43t44 16t43.5 -16t15.5 -43q0 -28 -15.5 -44.5t-43.5 -16.5zM212 532q-30 0 -48 18t-18 49q0 30 18 47.5t48 17.5t47.5 -18t17.5 -47q0 -30 -17.5 -48.5t-47.5 -18.5zM300 599q0 30 18 47.5t48 17.5t47.5 -18t17.5 -47
q0 -30 -17.5 -48.5t-47.5 -18.5t-48 18t-18 49zM447 121h138v-121h-217q-51 0 -80 7q-31 -7 -80 -7h-218v121h138q-38 61 -38 124q0 93 53 154.5t145 61.5t144.5 -61.5t52.5 -154.5q0 -63 -38 -124zM288 344q-38 0 -57 -25t-19 -66q0 -36 19.5 -70.5t55.5 -50.5
q36 16 56.5 50.5t20.5 69.5q0 41 -19.5 66.5t-56.5 25.5z" />
    <glyph glyph-name="uniFB7B" unicode="&#x686;" horiz-adv-x="721" arabic-form="final" 
d="M666 121h65v-121h-66q-70 0 -122 16t-99 69q-29 -11 -80.5 -22t-88.5 -23.5t-61 -34.5q-43 -40 -43 -113q0 -74 41.5 -110.5t111.5 -35.5q98 0 184 54v-119q-87 -56 -197 -56q-111 0 -186 70t-75 198q0 126 73 197q31 31 78.5 51t88.5 27.5t86.5 21.5t72.5 34
q-69 121 -166 121q-82 0 -175 -87v111q84 92 187 92q76 1 151.5 -54t134.5 -165v-50q-19 -30 -40 -48q39 -23 125 -23zM356 -62q0 -21 -12 -33.5t-33 -12.5t-33.5 12.5t-12.5 33.5q0 22 12.5 34.5t33.5 12.5t33 -12.5t12 -34.5zM467 -62q0 -21 -12 -33.5t-33 -12.5t-34 12.5
t-13 33.5q0 22 13 34.5t34 12.5t33 -12.5t12 -34.5zM366 -204q-20 0 -31.5 11t-11.5 30t11.5 30.5t31.5 11.5t31 -11.5t11 -30.5t-11.5 -30t-30.5 -11z" />
    <glyph glyph-name="uniFB7C" unicode="&#x686;" horiz-adv-x="582" arabic-form="initial" 
d="M-10 0v121h129q176 0 280 105q-68 119 -165 119q-80 0 -175 -87v111q84 92 188 92q76 1 151 -54.5t134 -164.5v-50q-82 -105 -193 -148.5t-221 -43.5h-128zM199 -222q-30 0 -48 18t-18 48t18 48.5t48 18.5t47.5 -18.5t17.5 -48.5t-17.5 -48t-47.5 -18zM353 -222
q-30 0 -48 18t-18 48t18 48.5t48 18.5t47.5 -18.5t17.5 -48.5t-17.5 -48t-47.5 -18zM275 -356q-27 0 -43.5 16t-16.5 43q0 28 16.5 44t43.5 16t43 -16.5t16 -43.5t-16 -43t-43 -16z" />
    <glyph glyph-name="uniFB7D" unicode="&#x686;" horiz-adv-x="676" arabic-form="medial" 
d="M622 121h64v-121h-65q-69 0 -119 15t-96 64q-125 -79 -288 -79h-128v121h129q176 0 280 105q-68 119 -165 119q-80 0 -175 -87v111q84 92 188 92q76 1 151 -54.5t134 -164.5v-50q-16 -21 -42 -47q40 -24 132 -24zM264 -156q0 -30 -17.5 -48t-47.5 -18t-48 18t-18 48
t18 48.5t48 18.5t47.5 -18.5t17.5 -48.5zM353 -89q30 0 47.5 -18.5t17.5 -48.5t-17.5 -48t-47.5 -18t-48 18t-18 48t18 48.5t48 18.5zM275 -237q27 0 43 -16.5t16 -43.5t-16 -43t-43 -16t-43.5 16t-16.5 43q0 28 16.5 44t43.5 16z" />
    <glyph glyph-name="uniFB8B" unicode="&#x698;" horiz-adv-x="382" arabic-form="final" 
d="M179 692q-28 0 -44 16.5t-16 44.5q0 27 16 43t44 16t43.5 -16t15.5 -43q0 -28 -15.5 -44.5t-43.5 -16.5zM103 545q-30 0 -48 18t-18 49q0 30 18 47.5t48 17.5t47.5 -18t17.5 -47q0 -30 -17.5 -48.5t-47.5 -18.5zM191 612q0 30 18 47.5t48 17.5t47.5 -18t17.5 -47
q0 -30 -17.5 -48.5t-47.5 -18.5t-48 18t-18 49zM336 121h70v-121h-82q-37 0 -70 11q-29 -109 -123 -148q-101 -44 -209 15v110q89 -49 154 -19q64 29 64 124v285l82 43l43 23v-1l1 1v-251q0 -39 16 -55.5t54 -16.5z" />
    <glyph glyph-name="uniFB8F" unicode="&#x6a9;" horiz-adv-x="908" arabic-form="final" 
d="M858 121h60v-121h-72q-74 0 -121 39q-48 -39 -121 -39h-358q-79 0 -127.5 51t-48.5 135v102l125 66v-160q0 -40 16.5 -56.5t54.5 -16.5h326q36 0 53 16.5t17 52.5v8q0 69 -65 102q-76 38 -192 -2v121l203 226h130l-182 -205q67 -6 118 -37q113 -68 113 -205v-5
q0 -39 16.5 -55.5t54.5 -16.5z" />
    <glyph glyph-name="uniFB90" unicode="&#x6a9;" horiz-adv-x="509" arabic-form="initial" 
d="M357 396q102 -69 102 -199v-13q0 -84 -49.5 -134t-133.5 -50h-286v121h273q36 0 53 16t17 53v6q0 65 -54 97q-77 49 -202 5v121l203 226h127l-182 -204q75 -6 132 -45z" />
    <glyph glyph-name="uniFB91" unicode="&#x6a9;" horiz-adv-x="583" arabic-form="medial" 
d="M530 121h59v-121h-72q-73 0 -120 39q-48 -39 -121 -39h-286v121h273q36 0 53 16t17 53v6q0 67 -55 98q-77 48 -201 4v121l203 226h127l-182 -204q79 -8 134 -47q100 -68 100 -197v-4q0 -39 16.5 -55.5t54.5 -16.5z" />
    <glyph glyph-name="uniFB93" unicode="&#x6af;" horiz-adv-x="908" arabic-form="final" 
d="M858 121h60v-121h-72q-74 0 -121 39q-48 -39 -121 -39h-358q-79 0 -127.5 51t-48.5 135v102l125 66v-160q0 -40 16.5 -56.5t54.5 -16.5h326q36 0 53 16.5t17 52.5v8q0 69 -65 102q-76 38 -192 -2v121l203 226h130l-182 -205q67 -6 118 -37q113 -68 113 -205v-5
q0 -39 16.5 -55.5t54.5 -16.5zM541 645l-196 -218h-95l196 218h95z" />
    <glyph glyph-name="uniFB94" unicode="&#x6af;" horiz-adv-x="626" arabic-form="initial" 
d="M473 396q103 -69 103 -199v-13q0 -84 -50 -134t-134 -50h-402v121h390q36 0 53 16t17 53v6q0 65 -54 97q-77 49 -202 5v121l203 226h126l-181 -204q77 -8 131 -45zM326 645l-196 -218h-95l196 218h95z" />
    <glyph glyph-name="uniFB95" unicode="&#x6af;" horiz-adv-x="696" arabic-form="medial" 
d="M646 121h60v-121h-72q-73 0 -121 39q-48 -39 -121 -39h-402v121h390q36 0 53 16t17 53v6q0 66 -55 98q-77 48 -201 4v121l203 226h126l-181 -204q79 -8 134 -47q100 -69 100 -197v-4q0 -39 16 -55.5t54 -16.5zM326 645l-196 -218h-95l196 218h95z" />
    <glyph glyph-name="uniFBFD" unicode="&#x6cc;" horiz-adv-x="675" arabic-form="final" 
d="M382 -181q-156 0 -234 79t-78 190q0 79 37 138l120 25q-40 -68 -40 -143q0 -78 47 -126.5t148 -48.5q135 0 174 67h-90l63 121h167v-121h-4q-16 -82 -98 -131.5t-212 -49.5z" />
    <glyph glyph-name="uniFBFE" unicode="&#x6cc;" horiz-adv-x="326" arabic-form="initial" 
d="M130 378l126 66v-257q0 -85 -49.5 -136t-134.5 -51h-82v121h70q38 0 54 16.5t16 55.5v185zM37 -91q30 0 47.5 -18t17.5 -47q0 -30 -17.5 -48.5t-47.5 -18.5t-48 18t-18 49q0 30 18 47.5t48 17.5zM191 -91q30 0 47.5 -18t17.5 -47q0 -30 -17.5 -48.5t-47.5 -18.5t-48 18
t-18 49q0 30 18 47.5t48 17.5z" />
    <glyph glyph-name="uniFBFF" unicode="&#x6cc;" horiz-adv-x="380" arabic-form="medial" 
d="M326 121h70v-121h-82q-73 0 -121 39q-48 -39 -121 -39h-82v121h70q38 0 54 16.5t16 55.5v185l126 66v-251q0 -39 16 -55.5t54 -16.5zM67 -91q30 0 47.5 -18t17.5 -47q0 -30 -17.5 -48.5t-47.5 -18.5t-48 18t-18 49q0 30 18 47.5t48 17.5zM221 -91q30 0 47.5 -18t17.5 -47
q0 -30 -17.5 -48.5t-47.5 -18.5t-48 18t-18 49q0 30 18 47.5t48 17.5z" />
    <glyph glyph-name="uniFE82" unicode="&#x622;" horiz-adv-x="326" arabic-form="final" 
d="M192 698q-21 0 -55.5 19.5t-47.5 19.5q-18 0 -48 -35l-43 38q45 58 90 58q22 0 56.5 -19.5t47.5 -19.5q17 0 49 35l42 -39q-46 -57 -91 -57zM254 0q-85 0 -134.5 51t-49.5 136v392l126 66v-452q0 -39 16 -55.5t54 -16.5h70v-121h-82z" />
    <glyph glyph-name="uniFE84" unicode="&#x623;" horiz-adv-x="326" arabic-form="final" 
d="M32 701l32 58h29q-14 28 -9.5 54t24.5 44q21 20 52 21t63 -24v-58q-23 21 -46.5 23.5t-30.5 -8.5q-21 -21 5 -52h102l-31 -58h-190zM254 0q-85 0 -134.5 51t-49.5 136v392l126 66v-452q0 -39 16 -55.5t54 -16.5h70v-121h-82z" />
    <glyph glyph-name="uniFE86" unicode="&#x624;" horiz-adv-x="525" arabic-form="final" 
d="M361 622l-31 -58h-190l32 58h29q-14 28 -9.5 54t24.5 44q21 20 52 21t63 -24v-58q-23 21 -46.5 23.5t-30.5 -8.5q-21 -21 5 -52h102zM535 121v-121h-117q-22 -75 -77.5 -113t-128.5 -38q-62 0 -123 36v109q61 -34 114 -34q57 0 84 44l-31 3q-97 10 -151.5 71.5
t-54.5 152.5q0 103 53.5 166.5t146.5 63.5q83 0 132.5 -50t49.5 -135v-155h103zM174 235q0 -97 88 -108q14 -3 45 -5v156q0 66 -57 66q-36 0 -56 -29.5t-20 -79.5z" />
    <glyph glyph-name="uniFE88" unicode="&#x625;" horiz-adv-x="326" arabic-form="final" 
d="M254 0q-85 0 -134.5 51t-49.5 136v392l126 66v-452q0 -39 16 -55.5t54 -16.5h70v-121h-82zM43 -272l32 58h29q-14 28 -9.5 54t24.5 44q21 20 52 21t63 -24v-58q-23 21 -46.5 23.5t-30.5 -8.5q-21 -21 5 -52h102l-31 -58h-190z" />
    <glyph glyph-name="uniFE8A" unicode="&#x626;" horiz-adv-x="675" arabic-form="final" 
d="M91 422l32 58h29q-14 28 -9.5 54t24.5 44q21 20 52 21t63 -24v-58q-23 21 -46.5 23.5t-30.5 -8.5q-21 -21 5 -52h102l-31 -58h-190zM382 -181q-156 0 -234 79t-78 190q0 79 37 138l120 25q-40 -68 -40 -143q0 -78 47 -126.5t148 -48.5q135 0 174 67h-90l63 121h167v-121
h-4q-16 -82 -98 -131.5t-212 -49.5z" />
    <glyph glyph-name="uniFE8B" unicode="&#x626;" horiz-adv-x="326" arabic-form="initial" 
d="M83 564l32 58h29q-14 28 -9.5 54t24.5 44q21 20 52 21t63 -24v-58q-23 21 -46.5 23.5t-30.5 -8.5q-21 -21 5 -52h102l-31 -58h-190zM-10 0v121h70q38 0 54 16.5t16 55.5v185l126 66v-257q0 -85 -49.5 -136t-134.5 -51h-82z" />
    <glyph glyph-name="uniFE8C" unicode="&#x626;" horiz-adv-x="386" arabic-form="medial" 
d="M304 622l-31 -58h-190l32 58h29q-14 28 -9.5 54t24.5 44q21 20 52 21t63 -24v-58q-23 21 -46.5 23.5t-30.5 -8.5q-21 -21 5 -52h102zM326 121h70v-121h-82q-73 0 -121 39q-48 -39 -121 -39h-82v121h70q38 0 54 16.5t16 55.5v185l126 66v-251q0 -39 16 -55.5t54 -16.5z
" />
    <glyph glyph-name="uniFE8E" unicode="&#x627;" horiz-adv-x="326" arabic-form="final" 
d="M254 0q-85 0 -134.5 51t-49.5 136v392l126 66v-452q0 -39 16 -55.5t54 -16.5h70v-121h-82z" />
    <glyph glyph-name="uniFE90" unicode="&#x628;" horiz-adv-x="918" arabic-form="final" 
d="M858 121h70v-121h-82q-74 0 -121 39q-48 -39 -122 -39h-357q-79 0 -127.5 51t-48.5 135v102l125 66v-160q0 -40 16.5 -56.5t54.5 -16.5h326q38 0 54 16.5t16 56.5v184l126 66v-251q0 -39 16 -55.5t54 -16.5zM407 -91q30 0 47.5 -18t17.5 -47q0 -30 -17.5 -48.5
t-47.5 -18.5t-48 18t-18 49q0 29 18 47t48 18z" />
    <glyph glyph-name="uniFE91" unicode="&#x628;" horiz-adv-x="326" arabic-form="initial" 
d="M-10 0v121h70q38 0 54 16.5t16 55.5v185l126 66v-257q0 -85 -49.5 -136t-134.5 -51h-82zM192 -223q-30 0 -48 18t-18 49q0 29 18 47t48 18t47.5 -18t17.5 -47q0 -30 -17.5 -48.5t-47.5 -18.5z" />
    <glyph glyph-name="uniFE92" unicode="&#x628;" horiz-adv-x="386" arabic-form="medial" 
d="M326 121h70v-121h-82q-73 0 -121 39q-48 -39 -121 -39h-82v121h70q38 0 54 16.5t16 55.5v185l126 66v-251q0 -39 16 -55.5t54 -16.5zM199 -91q30 0 47.5 -18t17.5 -47q0 -30 -17.5 -48.5t-47.5 -18.5t-48 18t-18 49q0 29 18 47t48 18z" />
    <glyph glyph-name="uniFE94" unicode="&#x629;" horiz-adv-x="543" arabic-form="final" 
d="M160 565q-30 0 -48 18t-18 49q0 30 18 47.5t48 17.5t47.5 -18t17.5 -47q0 -30 -17.5 -48.5t-47.5 -18.5zM314 565q-30 0 -48 18t-18 49q0 30 18 47.5t48 17.5t47.5 -18t17.5 -47q0 -30 -17.5 -48.5t-47.5 -18.5zM483 121h70v-121h-82q-93 0 -144 62q-43 -33 -105 -33
q-86 0 -139 59.5t-53 146.5q0 92 56 152.5t133 60.5q37 0 68 -14v26l125 66v-333q0 -39 16.5 -55.5t54.5 -16.5zM229 136q38 0 59 26q-1 8 -1 25v121q-26 22 -59 22q-34 0 -54 -27.5t-20 -70.5t19.5 -69.5t55.5 -26.5z" />
    <glyph glyph-name="uniFE96" unicode="&#x62a;" horiz-adv-x="918" arabic-form="final" 
d="M382 465q-30 0 -48 18.5t-18 48.5t18 47.5t48 17.5t47.5 -18t17.5 -47q0 -30 -17.5 -48.5t-47.5 -18.5zM536 465q-30 0 -48 18t-18 49q0 30 18 47.5t48 17.5t47.5 -18t17.5 -47q0 -30 -17.5 -48.5t-47.5 -18.5zM858 121h70v-121h-82q-74 0 -121 39q-48 -39 -122 -39h-357
q-79 0 -127.5 51t-48.5 135v102l125 66v-160q0 -40 16.5 -56.5t54.5 -16.5h326q38 0 54 16.5t16 56.5v184l126 66v-251q0 -39 16 -55.5t54 -16.5z" />
    <glyph glyph-name="uniFE97" unicode="&#x62a;" horiz-adv-x="326" arabic-form="initial" 
d="M42 545q-30 0 -48 18t-18 49q0 30 18 47.5t48 17.5t47.5 -18t17.5 -47q0 -30 -17.5 -48.5t-47.5 -18.5zM196 545q-30 0 -48 18t-18 49q0 30 18 47.5t48 17.5t47.5 -18t17.5 -47q0 -30 -17.5 -48.5t-47.5 -18.5zM-10 0v121h70q38 0 54 16.5t16 55.5v185l126 66v-257
q0 -85 -49.5 -136t-134.5 -51h-82z" />
    <glyph glyph-name="uniFE98" unicode="&#x62a;" horiz-adv-x="380" arabic-form="medial" 
d="M65 532q-30 0 -48 18t-18 49q0 29 18 47t48 18t47.5 -18t17.5 -47q0 -30 -17.5 -48.5t-47.5 -18.5zM218 532q-30 0 -48 18t-18 49q0 29 18.5 47t47.5 18q30 0 47.5 -18t17.5 -47q0 -30 -17.5 -48.5t-47.5 -18.5zM326 121h70v-121h-82q-73 0 -121 39q-48 -39 -121 -39h-82
v121h70q38 0 54 16.5t16 55.5v185l126 66v-251q0 -39 16 -55.5t54 -16.5z" />
    <glyph glyph-name="uniFE9A" unicode="&#x62b;" horiz-adv-x="918" arabic-form="final" 
d="M458 612q-28 0 -44 16.5t-16 45.5q0 27 16 43.5t44 16.5t44.5 -16.5t16.5 -43.5q0 -28 -16.5 -45t-44.5 -17zM382 465q-30 0 -48 18.5t-18 48.5t18 47.5t48 17.5t47.5 -18t17.5 -47q0 -30 -17.5 -48.5t-47.5 -18.5zM470 532q0 30 18 47.5t48 17.5t47.5 -18t17.5 -47
q0 -30 -17.5 -48.5t-47.5 -18.5t-48 18t-18 49zM858 121h70v-121h-82q-74 0 -121 39q-48 -39 -122 -39h-357q-79 0 -127.5 51t-48.5 135v102l125 66v-160q0 -40 16.5 -56.5t54.5 -16.5h326q38 0 54 16.5t16 56.5v184l126 66v-251q0 -39 16 -55.5t54 -16.5z" />
    <glyph glyph-name="uniFE9B" unicode="&#x62b;" horiz-adv-x="326" arabic-form="initial" 
d="M118 692q-28 0 -44 16.5t-16 44.5q0 27 16 43t44 16t43.5 -16t15.5 -43q0 -28 -15.5 -44.5t-43.5 -16.5zM42 545q-30 0 -48 18t-18 49q0 30 18 47.5t48 17.5t47.5 -18t17.5 -47q0 -30 -17.5 -48.5t-47.5 -18.5zM196 545q-30 0 -48 18t-18 49q0 30 18 47.5t48 17.5
t47.5 -18t17.5 -47q0 -30 -17.5 -48.5t-47.5 -18.5zM-10 0v121h70q38 0 54 16.5t16 55.5v185l126 66v-257q0 -85 -49.5 -136t-134.5 -51h-82z" />
    <glyph glyph-name="uniFE9C" unicode="&#x62b;" horiz-adv-x="380" arabic-form="medial" 
d="M142 679q-28 0 -44.5 17t-16.5 45q0 27 16.5 43.5t44.5 16.5t44 -16.5t16 -43.5q0 -29 -16 -45.5t-44 -16.5zM66 532q-30 0 -48 18t-18 49q0 29 18 47t48 18t47.5 -18t17.5 -47q0 -30 -17.5 -48.5t-47.5 -18.5zM154 599q0 29 18 47t48 18t47.5 -18t17.5 -47
q0 -30 -17.5 -48.5t-47.5 -18.5t-48 18t-18 49zM326 121h70v-121h-82q-73 0 -121 39q-48 -39 -121 -39h-82v121h70q38 0 54 16.5t16 55.5v185l126 66v-251q0 -39 16 -55.5t54 -16.5z" />
    <glyph glyph-name="uniFE9E" unicode="&#x62c;" horiz-adv-x="721" arabic-form="final" 
d="M666 121h65v-121h-66q-70 0 -122 16t-99 69q-29 -11 -80.5 -22t-88.5 -23.5t-61 -34.5q-43 -40 -43 -113q0 -74 41.5 -110.5t111.5 -35.5q98 0 184 54v-119q-87 -56 -197 -56q-111 0 -186 70t-75 198q0 125 73 196q40 39 103.5 59t126.5 35t96 41q-69 121 -166 121
q-82 0 -175 -87v111q84 92 187 92q76 1 151.5 -54t134.5 -165v-50q-19 -30 -40 -48q39 -23 125 -23zM271 -103q0 25 15.5 40.5t41.5 15.5t41 -15.5t15 -40.5q0 -26 -15 -41.5t-41 -15.5t-41.5 16t-15.5 41z" />
    <glyph glyph-name="uniFE9F" unicode="&#x62c;" horiz-adv-x="582" arabic-form="initial" 
d="M-10 0v121h129q176 0 280 105q-68 119 -165 119q-80 0 -175 -87v111q84 92 188 92q76 1 151 -54.5t134 -164.5v-50q-82 -105 -193 -148.5t-221 -43.5h-128zM345 -223q-30 0 -48 18t-18 49q0 29 18 47t48 18t47.5 -18t17.5 -47q0 -30 -17.5 -48.5t-47.5 -18.5z" />
    <glyph glyph-name="uniFEA0" unicode="&#x62c;" horiz-adv-x="676" arabic-form="medial" 
d="M622 121h64v-121h-65q-69 0 -119 15t-96 64q-125 -79 -288 -79h-128v121h129q176 0 280 105q-68 119 -165 119q-80 0 -175 -87v111q84 92 188 92q76 1 151 -54.5t134 -164.5v-50q-16 -21 -42 -47q40 -24 132 -24zM345 -91q30 0 47.5 -18t17.5 -47q0 -30 -17.5 -48.5
t-47.5 -18.5t-48 18t-18 49q0 29 18 47t48 18z" />
    <glyph glyph-name="uniFEA2" unicode="&#x62d;" horiz-adv-x="721" arabic-form="final" 
d="M666 121h65v-121h-66q-70 0 -122 16t-99 69q-29 -11 -80.5 -22t-88.5 -23.5t-61 -34.5q-43 -40 -43 -113q0 -74 41.5 -110.5t111.5 -35.5q98 0 184 54v-119q-87 -56 -197 -56q-111 0 -186 70t-75 198q0 125 73 196q40 39 103.5 59t126.5 35t96 41q-69 121 -166 121
q-82 0 -175 -87v111q84 92 187 92q76 1 151.5 -54t134.5 -165v-50q-19 -30 -40 -48q39 -23 125 -23z" />
    <glyph glyph-name="uniFEA3" unicode="&#x62d;" horiz-adv-x="582" arabic-form="initial" 
d="M-10 0v121h129q176 0 280 105q-68 119 -165 119q-80 0 -175 -87v111q84 92 188 92q76 1 151 -54.5t134 -164.5v-50q-82 -105 -193 -148.5t-221 -43.5h-128z" />
    <glyph glyph-name="uniFEA4" unicode="&#x62d;" horiz-adv-x="676" arabic-form="medial" 
d="M622 121h64v-121h-65q-69 0 -119 15t-96 64q-125 -79 -288 -79h-128v121h129q176 0 280 105q-68 119 -165 119q-80 0 -175 -87v111q84 92 188 92q76 1 151 -54.5t134 -164.5v-50q-16 -21 -42 -47q40 -24 132 -24z" />
    <glyph glyph-name="uniFEA6" unicode="&#x62e;" horiz-adv-x="721" arabic-form="final" 
d="M304 545q-30 0 -48 18t-18 49q0 29 18 47t48 18t47.5 -18t17.5 -47q0 -30 -17.5 -48.5t-47.5 -18.5zM666 121h65v-121h-66q-70 0 -122 16t-99 69q-29 -11 -80.5 -22t-88.5 -23.5t-61 -34.5q-43 -40 -43 -113q0 -74 41.5 -110.5t111.5 -35.5q98 0 184 54v-119
q-87 -56 -197 -56q-111 0 -186 70t-75 198q0 125 73 196q40 39 103.5 59t126.5 35t96 41q-69 121 -166 121q-82 0 -175 -87v111q84 92 187 92q76 1 151.5 -54t134.5 -165v-50q-19 -30 -40 -48q39 -23 125 -23z" />
    <glyph glyph-name="uniFEA7" unicode="&#x62e;" horiz-adv-x="582" arabic-form="initial" 
d="M256 545q-30 0 -48 18t-18 49q0 29 18 47t48 18t47.5 -18t17.5 -47q0 -30 -17.5 -48.5t-47.5 -18.5zM-10 0v121h129q176 0 280 105q-68 119 -165 119q-80 0 -175 -87v111q84 92 188 92q76 1 151 -54.5t134 -164.5v-50q-82 -105 -193 -148.5t-221 -43.5h-128z" />
    <glyph glyph-name="uniFEA8" unicode="&#x62e;" horiz-adv-x="676" arabic-form="medial" 
d="M277 545q-30 0 -48 18t-18 49q0 29 18 47t48 18t47.5 -18t17.5 -47q0 -30 -17.5 -48.5t-47.5 -18.5zM622 121h64v-121h-65q-69 0 -119 15t-96 64q-125 -79 -288 -79h-128v121h129q176 0 280 105q-68 119 -165 119q-80 0 -175 -87v111q84 92 188 92q76 1 151 -54.5
t134 -164.5v-50q-16 -21 -42 -47q40 -24 132 -24z" />
    <glyph glyph-name="uniFEAA" unicode="&#x62f;" horiz-adv-x="538" arabic-form="final" 
d="M10 0l63 121h158q25 0 38 12.5t13 46.5q0 110 -106 169l62 107q156 -91 168 -247q4 -50 22 -69t64 -19h56v-121h-63q-74 0 -125 41q-37 -41 -106 -41h-244z" />
    <glyph glyph-name="uniFEAC" unicode="&#x630;" horiz-adv-x="538" arabic-form="final" 
d="M240 545q-30 0 -48 18t-18 49q0 29 18 47t48 18t47.5 -18t17.5 -47q0 -30 -17.5 -48.5t-47.5 -18.5zM10 0l63 121h158q25 0 38 12.5t13 46.5q0 110 -106 169l62 107q156 -91 168 -247q4 -50 22 -69t64 -19h56v-121h-63q-74 0 -125 41q-37 -41 -106 -41h-244z" />
    <glyph glyph-name="uniFEAE" unicode="&#x631;" horiz-adv-x="396" arabic-form="final" 
d="M336 121h70v-121h-82q-37 0 -70 11q-29 -109 -123 -148q-101 -44 -209 15v110q89 -49 154 -19q64 29 64 124v285l82 43l43 23v-1l1 1v-251q0 -39 16 -55.5t54 -16.5z" />
    <glyph glyph-name="uniFEB0" unicode="&#x632;" horiz-adv-x="396" arabic-form="final" 
d="M163 545q-30 0 -48 18t-18 49q0 29 18 47t48 18t47.5 -18t17.5 -47q0 -30 -17.5 -48.5t-47.5 -18.5zM336 121h70v-121h-82q-37 0 -70 11q-29 -109 -123 -148q-101 -44 -209 15v110q89 -49 154 -19q64 29 64 124v285l82 43l43 23v-1l1 1v-251q0 -39 16 -55.5t54 -16.5z
" />
    <glyph glyph-name="uniFEB2" unicode="&#x633;" horiz-adv-x="1425" arabic-form="final" 
d="M1363 121h72v-121h-79q-80 0 -135 44q-47 -42 -124 -44h-95q-74 0 -121 39q-47 -38 -118 -39h-96q-40 0 -73 12q-27 -75 -94 -119t-163 -44q-126 0 -196.5 80t-70.5 189q0 79 37 138l120 25q-40 -68 -40 -143q0 -70 39.5 -119t110.5 -49q70 0 108 35.5t38 97.5v222
l126 66v-198q0 -39 16.5 -55.5t54.5 -16.5h67q38 0 54.5 16.5t16.5 55.5v158l125 67v-225q0 -39 16.5 -55.5t54.5 -16.5h68q38 0 54.5 16.5t16.5 55.5v185l125 66v-235q0 -48 19.5 -68t65.5 -20z" />
    <glyph glyph-name="uniFEB3" unicode="&#x633;" horiz-adv-x="1012" arabic-form="initial" 
d="M-10 0v121h86q38 0 54.5 16.5t16.5 55.5v132l126 66v-198q0 -39 16 -55.5t54 -16.5h68q38 0 54 16.5t16 55.5v158l126 67v-225q0 -39 16.5 -55.5t54.5 -16.5h68q38 0 54 16.5t16 55.5v185l126 66v-257q0 -83 -47.5 -134t-130.5 -53h-99q-74 0 -121 44q-43 -43 -114 -44
h-99q-74 0 -121 44q-47 -44 -121 -44h-99z" />
    <glyph glyph-name="uniFEB4" unicode="&#x633;" horiz-adv-x="1089" arabic-form="medial" 
d="M-10 0v121h86q38 0 54.5 16.5t16.5 55.5v132l126 66v-198q0 -39 16 -55.5t54 -16.5h68q38 0 54 16.5t16 55.5v158l126 67v-225q0 -39 16.5 -55.5t54.5 -16.5h68q38 0 54 16.5t16 55.5v185l126 66v-235q0 -48 19.5 -68t65.5 -20h72v-121h-79q-84 0 -135 48
q-45 -47 -121 -48h-99q-74 0 -121 44q-43 -43 -114 -44h-99q-74 0 -121 44q-47 -44 -121 -44h-99z" />
    <glyph glyph-name="uniFEB6" unicode="&#x634;" horiz-adv-x="1425" arabic-form="final" 
d="M882 679q-28 0 -44 16.5t-16 44.5q0 27 16 43t44 16t43.5 -16t15.5 -43q0 -28 -15.5 -44.5t-43.5 -16.5zM806 532q-30 0 -48 18t-18 49q0 30 18 47.5t48 17.5t47.5 -18t17.5 -47q0 -30 -17.5 -48.5t-47.5 -18.5zM894 599q0 30 18 47.5t48 17.5t47.5 -18t17.5 -47
q0 -30 -17.5 -48.5t-47.5 -18.5t-48 18t-18 49zM1363 121h72v-121h-79q-80 0 -135 44q-47 -42 -124 -44h-95q-74 0 -121 39q-47 -38 -118 -39h-96q-40 0 -73 12q-27 -75 -94 -119t-163 -44q-126 0 -196.5 80t-70.5 189q0 79 37 138l120 25q-40 -68 -40 -143q0 -70 39.5 -119
t110.5 -49q70 0 108 35.5t38 97.5v222l126 66v-198q0 -39 16.5 -55.5t54.5 -16.5h67q38 0 54.5 16.5t16.5 55.5v158l125 67v-225q0 -39 16.5 -55.5t54.5 -16.5h68q38 0 54.5 16.5t16.5 55.5v185l125 66v-235q0 -48 19.5 -68t65.5 -20z" />
    <glyph glyph-name="uniFEB7" unicode="&#x634;" horiz-adv-x="1012" arabic-form="initial" 
d="M538 679q-28 0 -44 16.5t-16 44.5q0 27 16 43t44 16t43.5 -16t15.5 -43q0 -28 -15.5 -44.5t-43.5 -16.5zM462 532q-30 0 -48 18t-18 49q0 30 18 47.5t48 17.5t47.5 -18t17.5 -47q0 -30 -17.5 -48.5t-47.5 -18.5zM616 532q-30 0 -48 18t-18 49q0 30 18 47.5t48 17.5
t47.5 -18t17.5 -47q0 -30 -17.5 -48.5t-47.5 -18.5zM-10 0v121h86q38 0 54.5 16.5t16.5 55.5v132l126 66v-198q0 -39 16 -55.5t54 -16.5h68q38 0 54 16.5t16 55.5v158l126 67v-225q0 -39 16.5 -55.5t54.5 -16.5h68q38 0 54 16.5t16 55.5v185l126 66v-257q0 -83 -47.5 -134
t-130.5 -53h-99q-74 0 -121 44q-43 -43 -114 -44h-99q-74 0 -121 44q-47 -44 -121 -44h-99z" />
    <glyph glyph-name="uniFEB8" unicode="&#x634;" horiz-adv-x="1089" arabic-form="medial" 
d="M538 679q-28 0 -44 16.5t-16 44.5q0 27 16 43t44 16t43.5 -16t15.5 -43q0 -28 -15.5 -44.5t-43.5 -16.5zM462 532q-30 0 -48 18t-18 49q0 30 18 47.5t48 17.5t47.5 -18t17.5 -47q0 -30 -17.5 -48.5t-47.5 -18.5zM616 532q-30 0 -48 18t-18 49q0 30 18 47.5t48 17.5
t47.5 -18t17.5 -47q0 -30 -17.5 -48.5t-47.5 -18.5zM-10 0v121h86q38 0 54.5 16.5t16.5 55.5v132l126 66v-198q0 -39 16 -55.5t54 -16.5h68q38 0 54 16.5t16 55.5v158l126 67v-225q0 -39 16.5 -55.5t54.5 -16.5h68q38 0 54 16.5t16 55.5v185l126 66v-235q0 -48 19.5 -68
t65.5 -20h72v-121h-79q-84 0 -135 48q-45 -47 -121 -48h-99q-74 0 -121 44q-43 -43 -114 -44h-99q-74 0 -121 44q-47 -44 -121 -44h-99z" />
    <glyph glyph-name="uniFEBA" unicode="&#x635;" horiz-adv-x="1413" arabic-form="final" 
d="M1353 121h70v-121h-82q-73 0 -121 39q-48 -39 -121 -39h-432q-40 0 -73 12q-27 -75 -94 -119t-163 -44q-126 0 -196.5 80t-70.5 189q0 79 37 138l120 25q-40 -68 -40 -143q0 -70 39.5 -119t110.5 -49q70 0 108 35.5t38 97.5v222l126 66v-198q0 -64 51 -71q15 47 37 91.5
t55.5 90.5t73.5 80t94 55.5t114 21.5q110 0 179.5 -72t69.5 -181v-21q0 -35 16.5 -50.5t53.5 -15.5zM1094 121q36 0 49.5 15.5t13.5 57.5v14q0 61 -34 98.5t-88 37.5q-81 0 -148 -62.5t-104 -160.5h311z" />
    <glyph glyph-name="uniFEBB" unicode="&#x635;" horiz-adv-x="990" arabic-form="initial" 
d="M681 461q110 0 179.5 -72t69.5 -181v-22q0 -85 -50 -135.5t-134 -50.5h-432q-73 0 -121 39q-48 -39 -121 -39h-82v121h70q38 0 54 16.5t16 55.5v132l126 66v-198q0 -64 51 -71q20 60 50.5 115.5t75.5 108t109.5 84t138.5 31.5zM804 194v14q0 61 -34 98.5t-88 37.5
q-81 0 -148 -62.5t-104 -160.5h311q36 0 49.5 15.5t13.5 57.5z" />
    <glyph glyph-name="uniFEBC" unicode="&#x635;" horiz-adv-x="1060" arabic-form="medial" 
d="M1000 121h70v-121h-82q-73 0 -121 39q-48 -39 -121 -39h-432q-73 0 -121 39q-48 -39 -121 -39h-82v121h70q38 0 54 16.5t16 55.5v132l126 66v-198q0 -64 51 -71q20 60 50.5 115.5t75.5 108t109.5 84t138.5 31.5q110 0 179.5 -72t69.5 -181v-21q0 -35 16.5 -50.5
t53.5 -15.5zM741 121q36 0 49.5 15.5t13.5 57.5v14q0 61 -34 98.5t-88 37.5q-81 0 -148 -62.5t-104 -160.5h311z" />
    <glyph glyph-name="uniFEBE" unicode="&#x636;" horiz-adv-x="1413" arabic-form="final" 
d="M1026 545q-30 0 -48 18t-18 49q0 29 18 47t48 18t47.5 -18t17.5 -47q0 -30 -17.5 -48.5t-47.5 -18.5zM1353 121h70v-121h-82q-73 0 -121 39q-48 -39 -121 -39h-432q-40 0 -73 12q-27 -75 -94 -119t-163 -44q-126 0 -196.5 80t-70.5 189q0 79 37 138l120 25
q-40 -68 -40 -143q0 -70 39.5 -119t110.5 -49q70 0 108 35.5t38 97.5v222l126 66v-198q0 -64 51 -71q15 47 37 91.5t55.5 90.5t73.5 80t94 55.5t114 21.5q110 0 179.5 -72t69.5 -181v-21q0 -35 16.5 -50.5t53.5 -15.5zM1094 121q36 0 49.5 15.5t13.5 57.5v14q0 61 -34 98.5
t-88 37.5q-81 0 -148 -62.5t-104 -160.5h311z" />
    <glyph glyph-name="uniFEBF" unicode="&#x636;" horiz-adv-x="990" arabic-form="initial" 
d="M681 545q-30 0 -48 18t-18 49q0 29 18 47t48 18t47.5 -18t17.5 -47q0 -30 -17.5 -48.5t-47.5 -18.5zM681 461q110 0 179.5 -72t69.5 -181v-22q0 -85 -50 -135.5t-134 -50.5h-432q-73 0 -121 39q-48 -39 -121 -39h-82v121h70q38 0 54 16.5t16 55.5v132l126 66v-198
q0 -64 51 -71q20 60 50.5 115.5t75.5 108t109.5 84t138.5 31.5zM804 194v14q0 61 -34 98.5t-88 37.5q-81 0 -148 -62.5t-104 -160.5h311q36 0 49.5 15.5t13.5 57.5z" />
    <glyph glyph-name="uniFEC0" unicode="&#x636;" horiz-adv-x="1060" arabic-form="medial" 
d="M700 545q-30 0 -48 18t-18 49q0 29 18 47t48 18t47.5 -18t17.5 -47q0 -30 -17.5 -48.5t-47.5 -18.5zM1000 121h70v-121h-82q-73 0 -121 39q-48 -39 -121 -39h-432q-73 0 -121 39q-48 -39 -121 -39h-82v121h70q38 0 54 16.5t16 55.5v132l126 66v-198q0 -64 51 -71
q20 60 50.5 115.5t75.5 108t109.5 84t138.5 31.5q110 0 179.5 -72t69.5 -181v-21q0 -35 16.5 -50.5t53.5 -15.5zM741 121q36 0 49.5 15.5t13.5 57.5v14q0 61 -34 98.5t-88 37.5q-81 0 -148 -62.5t-104 -160.5h311z" />
    <glyph glyph-name="uniFEC2" unicode="&#x637;" horiz-adv-x="972" arabic-form="final" 
d="M912 121h70v-121h-82q-72 0 -118 37q-46 -37 -115 -37h-647l64 121h134v457l126 67v-302q107 118 248 118q111 0 180 -71.5t69 -181.5v-21q0 -35 17 -50.5t54 -15.5zM662 121q31 0 42.5 12t11.5 56v19q0 61 -34.5 98.5t-88.5 37.5q-80 0 -146 -63.5t-102 -159.5h317z" />
    <glyph glyph-name="uniFEC3" unicode="&#x637;" horiz-adv-x="830" arabic-form="initial" 
d="M521 461q111 0 180 -71.5t69 -181.5v-24q0 -88 -47 -136t-127 -48h-606v121h157v457l126 67v-302q107 118 248 118zM645 189v19q0 61 -34.5 98.5t-88.5 37.5q-80 0 -146 -63.5t-102 -159.5h317q31 0 42.5 12t11.5 56z" />
    <glyph glyph-name="uniFEC4" unicode="&#x637;" horiz-adv-x="901" arabic-form="medial" 
d="M841 121h70v-121h-82q-72 0 -118 37q-46 -37 -115 -37h-606v121h157v457l126 67v-302q107 118 248 118q111 0 180 -71.5t69 -181.5v-21q0 -35 17 -50.5t54 -15.5zM591 121q31 0 42.5 12t11.5 56v19q0 61 -34.5 98.5t-88.5 37.5q-80 0 -146 -63.5t-102 -159.5h317z" />
    <glyph glyph-name="uniFEC6" unicode="&#x638;" horiz-adv-x="972" arabic-form="final" 
d="M591 545q-30 0 -48 18t-18 49q0 29 18 47t48 18t47.5 -18t17.5 -47q0 -30 -17.5 -48.5t-47.5 -18.5zM912 121h70v-121h-82q-72 0 -118 37q-46 -37 -115 -37h-647l64 121h134v457l126 67v-302q107 118 248 118q111 0 180 -71.5t69 -181.5v-21q0 -35 17 -50.5t54 -15.5z
M662 121q31 0 42.5 12t11.5 56v19q0 61 -34.5 98.5t-88.5 37.5q-80 0 -146 -63.5t-102 -159.5h317z" />
    <glyph glyph-name="uniFEC7" unicode="&#x638;" horiz-adv-x="830" arabic-form="initial" 
d="M518 545q-30 0 -48 18t-18 49q0 29 18 47t48 18t47.5 -18t17.5 -47q0 -30 -17.5 -48.5t-47.5 -18.5zM521 461q111 0 180 -71.5t69 -181.5v-24q0 -88 -47 -136t-127 -48h-606v121h157v457l126 67v-302q107 118 248 118zM645 189v19q0 61 -34.5 98.5t-88.5 37.5
q-80 0 -146 -63.5t-102 -159.5h317q31 0 42.5 12t11.5 56z" />
    <glyph glyph-name="uniFEC8" unicode="&#x638;" horiz-adv-x="901" arabic-form="medial" 
d="M518 545q-30 0 -48 18t-18 49q0 29 18 47t48 18t47.5 -18t17.5 -47q0 -30 -17.5 -48.5t-47.5 -18.5zM841 121h70v-121h-82q-72 0 -118 37q-46 -37 -115 -37h-606v121h157v457l126 67v-302q107 118 248 118q111 0 180 -71.5t69 -181.5v-21q0 -35 17 -50.5t54 -15.5z
M591 121q31 0 42.5 12t11.5 56v19q0 61 -34.5 98.5t-88.5 37.5q-80 0 -146 -63.5t-102 -159.5h317z" />
    <glyph glyph-name="uniFECA" unicode="&#x639;" horiz-adv-x="665" arabic-form="final" 
d="M310 -375q-110 0 -184 67t-74 180q0 44 15 81.5t42.5 66.5t53 48t59.5 39q-13 14 -39.5 46.5t-41.5 48.5t-39 33t-48 21v50q46 70 116 112.5t140 42.5t140.5 -43.5t117.5 -113.5v-48q-21 -4 -43.5 -18.5t-35 -27.5t-39 -43.5t-36.5 -40.5q33 -5 63 -5h197l1 -121h-269
q-54 0 -96 25q-68 -31 -102.5 -65.5t-34.5 -88.5q0 -58 40 -92t106 -33q98 0 184 54v-119q-86 -56 -193 -56zM309 169q10 10 48 60.5t63 65.5q-52 49 -110 49q-58 2 -109 -49q25 -15 62 -66t46 -60z" />
    <glyph glyph-name="uniFECB" unicode="&#x639;" horiz-adv-x="574" arabic-form="initial" 
d="M524 121v-121h-534v121h128q-28 55 -28 122q0 99 63.5 158.5t149.5 59.5q107 0 173 -92v-111q-74 88 -163 86q-43 -1 -70 -28.5t-27 -76.5q0 -51 32.5 -84.5t96.5 -33.5h179z" />
    <glyph glyph-name="uniFECC" unicode="&#x639;" horiz-adv-x="708" arabic-form="medial" 
d="M718 0h-269q-51 0 -96 25q-47 -25 -96 -25h-267v121h253h7l-23.5 29.5t-25 31l-22.5 25t-26.5 24.5t-26 15t-30.5 10v50q47 70 117 112.5t140 42.5t140.5 -43.5t116.5 -113.5v-48q-15 -2 -30.5 -10t-26 -15t-26.5 -24.5l-22.5 -25t-25 -31l-23.5 -29.5h6h254zM353 344
q-59 2 -110 -49q28 -20 63.5 -68.5t46.5 -60.5q13 13 47.5 61.5t61.5 67.5q-51 49 -109 49z" />
    <glyph glyph-name="uniFECE" unicode="&#x63a;" horiz-adv-x="665" arabic-form="final" 
d="M318 544q-30 0 -48 18t-18 49q0 29 18 47t48 18t47.5 -18t17.5 -47q0 -30 -17.5 -48.5t-47.5 -18.5zM310 -375q-110 0 -184 67t-74 180q0 44 15 81.5t42.5 66.5t53 48t59.5 39q-13 14 -39.5 46.5t-41.5 48.5t-39 33t-48 21v50q46 70 116 112.5t140 42.5t140.5 -43.5
t117.5 -113.5v-48q-21 -4 -43.5 -18.5t-35 -27.5t-39 -43.5t-36.5 -40.5q33 -5 63 -5h197l1 -121h-269q-54 0 -96 25q-68 -31 -102.5 -65.5t-34.5 -88.5q0 -58 40 -92t106 -33q98 0 184 54v-119q-86 -56 -193 -56zM309 169q10 10 48 60.5t63 65.5q-52 49 -110 49
q-58 2 -109 -49q25 -15 62 -66t46 -60z" />
    <glyph glyph-name="uniFECF" unicode="&#x63a;" horiz-adv-x="574" arabic-form="initial" 
d="M305 545q-30 0 -48 18t-18 49q0 29 18 47t48 18t47.5 -18t17.5 -47q0 -30 -17.5 -48.5t-47.5 -18.5zM524 121v-121h-534v121h128q-28 55 -28 122q0 99 63.5 158.5t149.5 59.5q107 0 173 -92v-111q-74 88 -163 86q-43 -1 -70 -28.5t-27 -76.5q0 -51 32.5 -84.5t96.5 -33.5
h179z" />
    <glyph glyph-name="uniFED0" unicode="&#x63a;" horiz-adv-x="708" arabic-form="medial" 
d="M354 545q-30 0 -48 18t-18 49q0 29 18 47t48 18t47.5 -18t17.5 -47q0 -30 -17.5 -48.5t-47.5 -18.5zM718 0h-269q-51 0 -96 25q-47 -25 -96 -25h-267v121h253h7l-23.5 29.5t-25 31l-22.5 25t-26.5 24.5t-26 15t-30.5 10v50q47 70 117 112.5t140 42.5t140.5 -43.5
t116.5 -113.5v-48q-15 -2 -30.5 -10t-26 -15t-26.5 -24.5l-22.5 -25t-25 -31l-23.5 -29.5h6h254zM353 344q-59 2 -110 -49q28 -20 63.5 -68.5t46.5 -60.5q13 13 47.5 61.5t61.5 67.5q-51 49 -109 49z" />
    <glyph glyph-name="uniFED2" unicode="&#x641;" horiz-adv-x="979" arabic-form="final" 
d="M701 532q-30 0 -48 18t-18 49q0 29 18 47t48 18t47.5 -18t17.5 -47q0 -30 -17.5 -48.5t-47.5 -18.5zM854 121h135v-121h-215q-49 0 -80 7q-29 -7 -80 -7h-368q-79 0 -127.5 51t-48.5 135v102l125 66v-160q0 -40 16.5 -56.5t54.5 -16.5h269q-38 61 -38 124
q0 93 52.5 154.5t144.5 61.5t145 -61.5t53 -154.5q0 -63 -38 -124zM694 344q-37 0 -56.5 -25t-19.5 -66q0 -36 20 -70.5t56 -50.5q36 16 56 50.5t20 69.5q0 41 -19.5 66.5t-56.5 25.5z" />
    <glyph glyph-name="uniFED3" unicode="&#x641;" horiz-adv-x="543" arabic-form="initial" 
d="M300 533q-30 0 -48 18t-18 49q0 29 18 47t48 18t47.5 -18t17.5 -47q0 -30 -17.5 -48.5t-47.5 -18.5zM-10 0v121h141q-31 43 -31 110q0 103 54 166.5t147 63.5q83 0 132.5 -50t49.5 -135v-90q-1 -80 -47.5 -133t-136.5 -53h-309zM298 121q59 0 59 64v93q0 66 -56 66
q-37 0 -57 -29.5t-20 -79.5q0 -53 19 -83.5t55 -30.5z" />
    <glyph glyph-name="uniFED4" unicode="&#x641;" horiz-adv-x="575" arabic-form="medial" 
d="M287 532q-30 0 -48 18t-18 49q0 29 18 47t48 18t47.5 -18t17.5 -47q0 -30 -17.5 -48.5t-47.5 -18.5zM447 121h138v-121h-217q-51 0 -80 7q-31 -7 -80 -7h-218v121h138q-38 61 -38 124q0 93 53 154.5t145 61.5t144.5 -61.5t52.5 -154.5q0 -63 -38 -124zM288 344
q-38 0 -57 -25t-19 -66q0 -36 19.5 -70.5t55.5 -50.5q36 16 56.5 50.5t20.5 69.5q0 41 -19.5 66.5t-56.5 25.5z" />
    <glyph glyph-name="uniFED6" unicode="&#x642;" horiz-adv-x="791" arabic-form="final" 
d="M427 532q-30 0 -48 18t-18 49q0 30 18 47.5t48 17.5t47.5 -18t17.5 -47q0 -30 -17.5 -48.5t-47.5 -18.5zM581 532q-30 0 -48 18t-18 49q0 30 18 47.5t48 17.5t47.5 -18t17.5 -47q0 -30 -17.5 -48.5t-47.5 -18.5zM382 -181q-156 0 -234 79t-78 190q0 79 37 138l120 25
q-40 -68 -40 -143q0 -73 47 -120.5t148 -47.5q129 0 168 66l-28 1q-96 10 -150.5 71.5t-54.5 152.5q0 103 53.5 166.5t146.5 63.5q83 0 132.5 -50t49.5 -135v-155h102v-121h-112q-23 -84 -101.5 -132.5t-205.5 -48.5zM573 123v155q0 66 -56 66q-36 0 -56.5 -29.5
t-20.5 -79.5q0 -97 89 -108q14 -2 44 -4z" />
    <glyph glyph-name="uniFED7" unicode="&#x642;" horiz-adv-x="543" arabic-form="initial" 
d="M225 532q-30 0 -48 18t-18 49q0 30 18 47.5t48 17.5t47.5 -18t17.5 -47q0 -30 -17.5 -48.5t-47.5 -18.5zM379 532q-30 0 -48 18t-18 49q0 30 18 47.5t48 17.5t47.5 -18t17.5 -47q0 -30 -17.5 -48.5t-47.5 -18.5zM-10 0v121h140q-30 44 -30 110q0 103 54 166.5t147 63.5
q83 0 132.5 -50t49.5 -135v-90q-1 -80 -47.5 -133t-136.5 -53h-309zM298 121q59 0 59 64v93q0 66 -56 66q-37 0 -57 -29.5t-20 -79.5q0 -53 19 -83.5t55 -30.5z" />
    <glyph glyph-name="uniFED8" unicode="&#x642;" horiz-adv-x="575" arabic-form="medial" 
d="M211 532q-30 0 -48 18t-18 49q0 30 18 47.5t48 17.5t47.5 -18t17.5 -47q0 -30 -17.5 -48.5t-47.5 -18.5zM365 532q-30 0 -48 18t-18 49q0 30 18 47.5t48 17.5t47.5 -18t17.5 -47q0 -30 -17.5 -48.5t-47.5 -18.5zM447 121h138v-121h-217q-51 0 -80 7q-31 -7 -80 -7h-218
v121h138q-38 61 -38 124q0 93 53 154.5t145 61.5t144.5 -61.5t52.5 -154.5q0 -63 -38 -124zM288 344q-38 0 -57 -25t-19 -66q0 -36 19.5 -70.5t55.5 -50.5q36 16 56.5 50.5t20.5 69.5q0 41 -19.5 66.5t-56.5 25.5z" />
    <glyph glyph-name="uniFEDA" unicode="&#x643;" horiz-adv-x="918" arabic-form="final" 
d="M858 121h70v-121h-82q-74 0 -121 39q-48 -39 -122 -39h-357q-79 0 -127.5 51t-48.5 135v102l125 66v-160q0 -40 16.5 -56.5t54.5 -16.5h326q38 0 54 16.5t16 56.5v385l125 66v-452q0 -39 16.5 -55.5t54.5 -16.5zM522 415q0 -38 -21 -60t-58 -22h-128l31 58h91q27 0 27 27
t-29 33t-63 -15v50l87 95h73l-73 -82q63 -14 63 -84z" />
    <glyph glyph-name="uniFEDB" unicode="&#x643;" horiz-adv-x="509" arabic-form="initial" 
d="M357 396q102 -69 102 -199v-13q0 -84 -49.5 -134t-133.5 -50h-286v121h273q36 0 53 16t17 53v6q0 65 -54 97q-77 49 -202 5v121l203 226h127l-182 -204q75 -6 132 -45z" />
    <glyph glyph-name="uniFEDC" unicode="&#x643;" horiz-adv-x="583" arabic-form="medial" 
d="M530 121h59v-121h-72q-73 0 -120 39q-48 -39 -121 -39h-286v121h273q36 0 53 16t17 53v6q0 67 -55 98q-77 48 -201 4v121l203 226h127l-182 -204q79 -8 134 -47q100 -68 100 -197v-4q0 -39 16.5 -55.5t54.5 -16.5z" />
    <glyph glyph-name="uniFEDE" unicode="&#x644;" horiz-adv-x="765" arabic-form="final" 
d="M705 121h70v-121h-82q-43 0 -79 14q-30 -76 -99.5 -120.5t-164.5 -44.5q-134 0 -207 79t-73 186q0 78 36 138l124 28q-41 -65 -41 -149q0 -69 41 -115t120 -46q74 0 116.5 41.5t42.5 110.5v456l125 67v-202l1 1v-251q0 -39 16 -55.5t54 -16.5z" />
    <glyph glyph-name="uniFEDF" unicode="&#x644;" horiz-adv-x="313" arabic-form="initial" 
d="M-10 0v121h43q46 0 65.5 20t19.5 68v369l125 67v-437q0 -91 -53.5 -149.5t-149.5 -58.5h-50z" />
    <glyph glyph-name="uniFEE0" unicode="&#x644;" horiz-adv-x="374" arabic-form="medial" 
d="M314 121h70v-121h-82q-78 0 -127 44q-55 -44 -135 -44h-50v121h43q46 0 65.5 20t19.5 68v369l125 67v-202l1 1v-251q0 -39 16 -55.5t54 -16.5z" />
    <glyph glyph-name="uniFEE2" unicode="&#x645;" horiz-adv-x="673" arabic-form="final" 
d="M614 121h69v-121h-82q-68 0 -116 35q-51 -35 -130 -35h-139q-38 0 -54 -16.5t-16 -55.5v-177l-126 -66v249q0 78 43 128.5t118 57.5q-20 49 -20 111q0 103 53.5 166.5t146.5 63.5q83 0 132.5 -50t49.5 -135v-83q0 -39 16.5 -55.5t54.5 -16.5zM417 177v101q0 66 -56 66
q-36 0 -56.5 -29.5t-20.5 -79.5q0 -114 75 -114q30 0 44 13t14 43z" />
    <glyph glyph-name="uniFEE3" unicode="&#x645;" horiz-adv-x="563" arabic-form="initial" 
d="M312 461q93 0 147 -63.5t54 -166.5q0 -104 -52.5 -167.5t-141.5 -63.5q-80 0 -131 35q-48 -35 -116 -35h-82v121h70q38 0 54 16.5t16 55.5v83q0 85 49.5 135t132.5 50zM315 121q74 0 74 114q0 50 -20 79.5t-57 29.5q-56 0 -56 -66v-101q0 -30 14 -43t45 -13z" />
    <glyph glyph-name="uniFEE4" unicode="&#x645;" horiz-adv-x="665" arabic-form="medial" 
d="M606 121h69v-121h-82q-72 0 -118 37q-54 -57 -142 -57q-90 0 -142 57q-48 -37 -119 -37h-82v121h70q38 0 54 16.5t16 55.5v29q0 109 54 174t149 65t148.5 -65t53.5 -174v-29q0 -39 16.5 -55.5t54.5 -16.5zM333 101q76 0 76 124q0 57 -19.5 88t-56.5 31t-57 -31t-20 -88
q0 -124 77 -124z" />
    <glyph glyph-name="uniFEE6" unicode="&#x646;" horiz-adv-x="739" arabic-form="final" 
d="M349 472q-30 0 -48 18t-18 49q0 29 18 47t48 18t47.5 -18t17.5 -47q0 -30 -17.5 -48.5t-47.5 -18.5zM679 121h70v-121h-82q-40 0 -73 12q-27 -75 -94 -119t-163 -44q-126 0 -196.5 80t-70.5 189q0 79 37 138l120 25q-40 -68 -40 -143q0 -70 39.5 -119t110.5 -49
q70 0 108 35.5t38 97.5v275l126 66v-251q0 -39 16 -55.5t54 -16.5z" />
    <glyph glyph-name="uniFEE7" unicode="&#x646;" horiz-adv-x="326" arabic-form="initial" 
d="M196 545q-30 0 -48 18t-18 49q0 29 18 47t48 18t47.5 -18t17.5 -47q0 -30 -17.5 -48.5t-47.5 -18.5zM-10 0v121h70q38 0 54 16.5t16 55.5v185l126 66v-257q0 -85 -49.5 -136t-134.5 -51h-82z" />
    <glyph glyph-name="uniFEE8" unicode="&#x646;" horiz-adv-x="386" arabic-form="medial" 
d="M196 545q-30 0 -48 18t-18 49q0 29 18 47t48 18t47.5 -18t17.5 -47q0 -30 -17.5 -48.5t-47.5 -18.5zM326 121h70v-121h-82q-73 0 -121 39q-48 -39 -121 -39h-82v121h70q38 0 54 16.5t16 55.5v185l126 66v-251q0 -39 16 -55.5t54 -16.5z" />
    <glyph glyph-name="uniFEEA" unicode="&#x647;" horiz-adv-x="543" arabic-form="final" 
d="M483 121h70v-121h-82q-93 0 -144 62q-43 -33 -105 -33q-86 0 -139 59.5t-53 146.5q0 92 56 152.5t133 60.5q37 0 68 -14v26l125 66v-333q0 -39 16.5 -55.5t54.5 -16.5zM229 136q38 0 59 26q-1 8 -1 25v121q-26 22 -59 22q-34 0 -54 -27.5t-20 -70.5t19.5 -69.5
t55.5 -26.5z" />
    <glyph glyph-name="uniFEEB" unicode="&#x647;" horiz-adv-x="642" arabic-form="initial" 
d="M327 486q106 0 180.5 -69t74.5 -187v-44q0 -85 -50.5 -135.5t-136.5 -50.5h-126q-34 0 -64 10q-31 -10 -64 -10h-151v121h82q-17 37 -17 81q0 62 33 104q26 86 91 133t148 47zM457 194v36q0 65 -37.5 102t-95.5 37q-41 0 -71 -18q48 -14 75 -54t27 -95q0 -44 -17 -81h55
q36 0 50 15.5t14 57.5zM205 130q64 21 64 83q0 30 -17.5 49t-46.5 19t-46.5 -19t-17.5 -49q0 -62 64 -83z" />
    <glyph glyph-name="uniFEEC" unicode="&#x647;" horiz-adv-x="713" arabic-form="medial" 
d="M653 121h70v-121h-82q-74 0 -122 40q-48 -40 -124 -40h-126q-34 0 -64 10q-31 -10 -64 -10h-151v121h82q-17 37 -17 81q0 62 33 104q26 86 91 133t148 47q106 0 180.5 -69t74.5 -187v-37q0 -39 16.5 -55.5t54.5 -16.5zM393 121q36 0 50 15.5t14 57.5v36q0 65 -37.5 102
t-95.5 37q-41 0 -71 -18q48 -14 75 -54t27 -95q0 -44 -17 -81h55zM205 130q64 21 64 83q0 30 -17.5 49t-46.5 19t-46.5 -19t-17.5 -49q0 -62 64 -83z" />
    <glyph glyph-name="uniFEEE" unicode="&#x648;" horiz-adv-x="525" arabic-form="final" 
d="M535 121v-121h-117q-22 -75 -77.5 -113t-128.5 -38q-62 0 -123 36v109q61 -34 114 -34q57 0 84 44l-31 3q-97 10 -151.5 71.5t-54.5 152.5q0 103 53.5 166.5t146.5 63.5q83 0 132.5 -50t49.5 -135v-155h103zM174 235q0 -97 88 -108q14 -3 45 -5v156q0 66 -57 66
q-36 0 -56 -29.5t-20 -79.5z" />
    <glyph glyph-name="uniFEF0" unicode="&#x649;" horiz-adv-x="675" arabic-form="final" 
d="M382 -181q-156 0 -234 79t-78 190q0 79 37 138l120 25q-40 -68 -40 -143q0 -78 47 -126.5t148 -48.5q135 0 174 67h-90l63 121h167v-121h-4q-16 -82 -98 -131.5t-212 -49.5z" />
    <glyph glyph-name="uniFEF2" unicode="&#x64a;" horiz-adv-x="675" arabic-form="final" 
d="M382 -181q-156 0 -234 79t-78 190q0 79 37 138l120 25q-40 -68 -40 -143q0 -78 47 -126.5t148 -48.5q135 0 174 67h-90l63 121h167v-121h-4q-16 -82 -98 -131.5t-212 -49.5zM315 -411q-30 0 -48 18t-18 49q0 30 18 47.5t48 17.5t47.5 -18t17.5 -47q0 -30 -17.5 -48.5
t-47.5 -18.5zM469 -411q-30 0 -48 18t-18 49q0 30 18 47.5t48 17.5t47.5 -18t17.5 -47q0 -30 -17.5 -48.5t-47.5 -18.5z" />
    <glyph glyph-name="uniFEF3" unicode="&#x64a;" horiz-adv-x="326" arabic-form="initial" 
d="M-10 0v121h70q38 0 54 16.5t16 55.5v185l126 66v-257q0 -85 -49.5 -136t-134.5 -51h-82zM37 -223q-30 0 -48 18t-18 49q0 30 18 47.5t48 17.5t47.5 -18t17.5 -47q0 -30 -17.5 -48.5t-47.5 -18.5zM191 -223q-30 0 -48 18t-18 49q0 30 18 47.5t48 17.5t47.5 -18t17.5 -47
q0 -30 -17.5 -48.5t-47.5 -18.5z" />
    <glyph glyph-name="uniFEF4" unicode="&#x64a;" horiz-adv-x="380" arabic-form="medial" 
d="M326 121h70v-121h-82q-73 0 -121 39q-48 -39 -121 -39h-82v121h70q38 0 54 16.5t16 55.5v185l126 66v-251q0 -39 16 -55.5t54 -16.5zM67 -91q30 0 47.5 -18t17.5 -47q0 -30 -17.5 -48.5t-47.5 -18.5t-48 18t-18 49q0 30 18 47.5t48 17.5zM221 -91q30 0 47.5 -18t17.5 -47
q0 -30 -17.5 -48.5t-47.5 -18.5t-48 18t-18 49q0 30 18 47.5t48 17.5z" />
    <glyph glyph-name=".notdef" horiz-adv-x="443" 
d="M363 645v-885h-281v885h281zM295 586h-146v-29h57v-33h-58v-29h147v29h-59v33h59v29zM236 472h-88v-92h147v30h-59v62zM206 441v-31h-29v31h29zM295 356h-147v-30h58v-32h-58v-30h88v62h59v30zM295 303h-29v-59h-118v-30h147v89zM295 195h-89v-50h30v20h30v-41h-89v71
h-29v-100h147v100zM295 41h-147v-100h147v100zM266 12v-41h-89v41h89zM295 -79h-147v-29h62l-62 -42v-29h147v29h-91l62 42h29v29z" />
    <glyph glyph-name=".null" 
 />
    <glyph glyph-name="nonmarkingreturn" horiz-adv-x="333" 
 />
    <glyph glyph-name="space" unicode=" " horiz-adv-x="140" 
 />
    <glyph glyph-name="exclam" unicode="!" horiz-adv-x="288" 
d="M74 153v381l126 66v-381zM142 -22q-37 0 -56.5 22.5t-18.5 54.5q2 29 21.5 49t53.5 20q35 0 54.5 -21.5t18.5 -52.5q0 -30 -19 -51t-54 -21z" />
    <glyph glyph-name="quotedbl" unicode="&#x22;" horiz-adv-x="356" 
d="M70 433v163l90 49v-163zM195 433v163l91 49v-163z" />
    <glyph glyph-name="numbersign" unicode="#" horiz-adv-x="818" 
d="M600 323l-21 -94h138l-43 -121h-123l-29 -125h-125l29 125h-107l-29 -125h-125l29 125h-144l72 121h100l21 94h-141l71 121h98l28 121h125l-28 -121h107l28 121h125l-28 -121h140l-71 -121h-97zM347 229h107l21 94h-107z" />
    <glyph glyph-name="dollar" unicode="$" horiz-adv-x="486" 
d="M451 108q0 -66 -46 -112t-124 -60v-92h-67v87q-53 5 -103.5 33.5t-76.5 69.5l67 78q39 -62 113 -78v163q-84 34 -123.5 78.5t-40.5 109.5q-1 69 44 114t120 53v61h67v-64q42 -11 81 -37.5t55 -57.5l-63 -74q-30 47 -73 65v-154q170 -71 170 -183zM159 394
q0 -20 14.5 -40.5t40.5 -35.5v136q-26 -4 -40.5 -20t-14.5 -40zM281 34q61 14 61 65q0 38 -61 70v-135z" />
    <glyph glyph-name="percent" unicode="%" horiz-adv-x="750" 
d="M185 0l291 565h94l-291 -565h-94zM293 412q0 64 -33 107t-87 43q-58 0 -90.5 -42t-32.5 -109q0 -72 32 -115t91 -43q56 0 88 44.5t32 114.5zM223 410q0 -39 -14.5 -66.5t-37.5 -27.5q-24 0 -38 27.5t-14 66.5q0 37 14.5 62.5t37.5 25.5q24 0 38 -26.5t14 -61.5zM700 156
q0 64 -33 107t-87 43q-58 0 -90.5 -42t-32.5 -109q0 -72 32 -115t91 -43q56 0 88 44.5t32 114.5zM629 154q0 -40 -14 -67t-37 -27q-24 0 -38 27t-14 67q0 37 14 62.5t38 25.5q23 0 37 -26.5t14 -61.5z" />
    <glyph glyph-name="ampersand" unicode="&#x26;" horiz-adv-x="604" 
d="M435 82q64 -57 109 -84l-122 -1l-39 30q-60 -49 -148 -49q-80 0 -128 40q-47 38 -47 100q0 44 21 76t71 70q-50 77 -50 133q0 61 39.5 97.5t105.5 36.5q59 0 93.5 -32.5t34.5 -86.5q0 -84 -105 -164q38 -50 102 -110q46 51 69 132l82 -18q-36 -111 -88 -170zM248 459
q-60 0 -60 -53q0 -46 38 -98q74 49 72 106q-1 43 -50 45zM231 59q39 -2 79 23q-67 66 -109 114q-53 -40 -52 -78q1 -27 23.5 -42.5t58.5 -16.5z" />
    <glyph glyph-name="quotesingle" unicode="'" horiz-adv-x="230" 
d="M70 433v163l90 49v-163z" />
    <glyph glyph-name="parenleft" unicode="(" horiz-adv-x="431" 
d="M325 -105q-128 57 -196.5 170.5t-68.5 246.5t68.5 247t196.5 170v-112q-70 -48 -106.5 -131t-37.5 -176q0 -93 37.5 -173t106.5 -128v-114z" />
    <glyph glyph-name="parenright" unicode=")" horiz-adv-x="431" 
d="M106 -105v114q69 49 107 129t37 169q0 95 -36.5 178t-107.5 131v113q129 -57 197 -172.5t68 -251.5q0 -130 -69 -242t-196 -168z" />
    <glyph glyph-name="asterisk" unicode="*" horiz-adv-x="364" 
d="M183 408q-16 0 -26.5 8.5t-10.5 23.5q1 19 22 64q-31 -44 -43 -52q-13 -8 -25.5 -4t-21.5 17t-7.5 27.5t14.5 22.5q12 9 68 16q-55 7 -68 14q-27 16 -9 48q21 34 47 16q9 -6 42 -46q-19 38 -19 57q-1 15 9.5 23.5t26.5 8.5t27.5 -9t10.5 -23q0 -9 -18 -54q27 35 40 43
q12 7 25 1t21 -20q7 -12 4.5 -26.5t-15.5 -20.5q-9 -5 -61 -12q52 -7 63 -14q12 -7 14.5 -21t-6.5 -27q-20 -34 -46 -15q-12 7 -39 44q19 -50 19 -58q1 -14 -10.5 -23t-27.5 -9z" />
    <glyph glyph-name="plus" unicode="+" horiz-adv-x="440" 
d="M395 272v-121h-115v-114h-121v114h-114v121h114v115l122 -1v-114h114z" />
    <glyph glyph-name="comma" unicode="," horiz-adv-x="298" 
d="M135 -120l-40 25q45 47 57 97h-9q-38 0 -58 23.5t-21 57.5q0 37 24 64.5t66 27.5q40 0 64 -27t24 -73q0 -52 -29 -108t-78 -87z" />
    <glyph glyph-name="hyphen" unicode="-" horiz-adv-x="301" 
d="M70 112v121h161v-121h-161z" />
    <glyph glyph-name="period" unicode="." horiz-adv-x="288" 
d="M145 -5q-37 0 -56.5 22.5t-18.5 54.5q2 29 21.5 49t53.5 20q35 0 54.5 -21.5t18.5 -52.5q0 -30 -19 -51t-54 -21z" />
    <glyph glyph-name="slash" unicode="/" horiz-adv-x="477" 
d="M40 -80l271 773h126l-271 -773h-126z" />
    <glyph glyph-name="zero" unicode="0" horiz-adv-x="465" 
d="M433 279q0 127 -53.5 212.5t-145.5 85.5q-97 0 -149.5 -83.5t-52.5 -215.5t53 -216t149 -84q93 0 146 86t53 215zM322 278q0 -85 -24 -141.5t-65 -56.5q-43 0 -66 56t-23 142q0 87 23 142t66 55q42 0 65.5 -56.5t23.5 -140.5z" />
    <glyph glyph-name="one" unicode="1" horiz-adv-x="470" 
d="M219 565h121v-565h-126v477l-122 -63l-20 75z" />
    <glyph glyph-name="two" unicode="2" horiz-adv-x="425" 
d="M45 0v86l182 267q45 65 19 101q-17 25 -48 25q-26 0 -45.5 -18.5t-19.5 -49.5h-87q-2 70 43.5 118.5t118.5 48.5q65 0 107.5 -34t49.5 -89q6 -41 -13.5 -86t-62.5 -110l-105 -154h195v-105h-334z" />
    <glyph glyph-name="three" unicode="3" horiz-adv-x="458" 
d="M201 -13q-122 -1 -161 111l75 35q23 -51 80 -51q36 0 58.5 20.5t22.5 53.5q0 30 -22.5 52.5t-56.5 22.5h-69l1 106h50q35 0 55.5 24.5t20.5 55.5q0 30 -18 47t-42 17q-25 0 -41.5 -16.5t-16.5 -48.5h-85q-4 71 37 116.5t106 45.5q69 0 113.5 -45.5t44.5 -113.5
q0 -75 -55 -127q80 -54 80 -139q1 -68 -48 -117t-129 -49z" />
    <glyph glyph-name="four" unicode="4" horiz-adv-x="478" 
d="M253 0l1 101h-214v110l216 354h97v-358h75v-106h-75v-101h-100zM131 207h123v200z" />
    <glyph glyph-name="five" unicode="5" horiz-adv-x="423" 
d="M194 -12q-57 -1 -103 33t-56 87l74 35q23 -60 80 -62q36 -1 57 22.5t21 66.5q0 137 -201 89v306h273v-105h-176v-105q103 8 154 -42.5t51 -144.5q0 -82 -46.5 -130.5t-127.5 -49.5z" />
    <glyph glyph-name="six" unicode="6" horiz-adv-x="449" 
d="M237 356q76 0 119 -47t43 -123q0 -90 -47 -144t-124 -54q-88 0 -133 62.5t-45 169.5q0 169 87.5 261.5t228.5 83.5l-22 -86q-68 0 -118 -38.5t-68 -104.5q40 20 79 20zM227 81q36 0 54.5 28t18.5 71t-19 64.5t-53 21.5q-36 0 -72 -28q-16 -65 5.5 -111t65.5 -46zM126 205
q-8 -10 -12 -19z" />
    <glyph glyph-name="seven" unicode="7" horiz-adv-x="516" 
d="M103 0l209 478h-216v87h355v-52l-226 -513h-122z" />
    <glyph glyph-name="eight" unicode="8" horiz-adv-x="428" 
d="M207 -12q-80 0 -128.5 43.5t-48.5 118.5q0 94 93 142q-74 50 -72 136q2 61 44.5 104.5t114.5 43.5t113.5 -43t41.5 -104q0 -86 -74 -135q97 -48 97 -144q0 -74 -50.5 -118t-130.5 -44zM209 334q67 38 63 94q-1 27 -19 43t-43 16q-28 0 -46 -16.5t-19 -45.5q-3 -52 64 -91
zM209 71q34 1 57.5 22.5t21.5 58.5q-4 61 -81 91q-75 -30 -78 -91q-2 -38 21.5 -59.5t58.5 -21.5z" />
    <glyph glyph-name="nine" unicode="9" horiz-adv-x="436" 
d="M221 577q88 0 133 -62.5t45 -169.5q0 -169 -81.5 -258t-224.5 -87l22 86q70 0 120 41t62 111q-36 -30 -85 -30q-75 0 -118.5 48.5t-43.5 122.5q0 86 46.5 142t124.5 56zM221 299q50 0 79 61q2 57 -18 90t-59 33q-37 0 -56 -29.5t-18 -69.5q0 -39 19.5 -62.5t52.5 -22.5z
" />
    <glyph glyph-name="colon" unicode=":" horiz-adv-x="288" 
d="M145 235q-37 0 -56.5 22.5t-18.5 54.5q2 29 21.5 49t53.5 20q35 0 54.5 -21.5t18.5 -52.5q0 -30 -19 -51t-54 -21zM145 -5q-37 0 -56.5 22.5t-18.5 54.5q2 29 21.5 49t53.5 20q35 0 54.5 -21.5t18.5 -52.5q0 -30 -19 -51t-54 -21z" />
    <glyph glyph-name="less" unicode="&#x3c;" horiz-adv-x="500" 
d="M430 -17l-400 215v56l400 215v-121l-234 -125l234 -126v-114z" />
    <glyph glyph-name="equal" unicode="=" horiz-adv-x="490" 
d="M70 247v121h350v-121h-350zM70 56v121h350v-121h-350z" />
    <glyph glyph-name="greater" unicode="&#x3e;" horiz-adv-x="500" 
d="M70 -17v114l234 126l-234 125v121l400 -215v-56z" />
    <glyph glyph-name="at" unicode="@" horiz-adv-x="616" 
d="M327 -108q-131 0 -210.5 76t-79.5 201q0 147 102 230q87 70 208 70q57 0 96 -12t81 -40q87 -61 87 -169q0 -89 -58.5 -144.5t-150.5 -54.5q-39 1 -46 34q-35 -35 -78 -30q-30 3 -49 29t-19 69q0 68 36 117q33 50 90 50q32 0 55 -21l4 22h57l-36 -167q-5 -27 0 -31
q2 -1 7 -2q38 -3 74 33q40 39 31.5 109t-58.5 100q-60 35 -124 35q-94 0 -160 -60q-66 -61 -66 -166q-1 -94 55.5 -149t151.5 -55q88 0 139 35l25 -67q-65 -42 -164 -42zM297 110q24 -4 44 21q15 20 24 59l11 51q-10 26 -37 26q-30 0 -50 -38t-18.5 -77t26.5 -42z" />
    <glyph glyph-name="bracketleft" unicode="[" horiz-adv-x="403" 
d="M105 -82v89h102v607h-102v88h228v-784h-228z" />
    <glyph glyph-name="backslash" unicode="\" horiz-adv-x="477" 
d="M311 -80l-271 773h126l271 -773h-126z" />
    <glyph glyph-name="bracketright" unicode="]" horiz-adv-x="403" 
d="M70 -88v790h228v-88h-102v-614h102v-88h-228z" />
    <glyph glyph-name="underscore" unicode="_" horiz-adv-x="440" 
d="M50 -121v121h340v-121h-340z" />
    <glyph glyph-name="braceleft" unicode="{" horiz-adv-x="444" 
d="M344 -74q-125 -26 -163 -2t-38 118v167q0 73 -73 73v55q73 0 73 72v167q0 94 38 118t163 -2v-33q-48 6 -64.5 -16t-16.5 -75v-168q0 -63 -56 -90q56 -29 56 -92v-168q0 -53 16.5 -75t64.5 -16v-33z" />
    <glyph glyph-name="bar" unicode="|" horiz-adv-x="326" 
d="M100 -61v749h126v-749h-126z" />
    <glyph glyph-name="braceright" unicode="}" horiz-adv-x="444" 
d="M100 -74v33q48 -6 64 16t16 75v168q0 63 56 92q-56 27 -56 90v168q0 53 -16 75t-64 16v33q125 26 163 2t38 -118v-167q0 -72 73 -72v-55q-73 0 -73 -73v-167q0 -94 -38 -118t-163 2z" />
    <glyph glyph-name="cent" unicode="&#xa2;" horiz-adv-x="380" 
d="M187 -99v59q-75 11 -116 58q-41 52 -41 119q0 70 38 123q40 56 119 67v55h55v-55q57 -9 101 -44l-41 -70q-36 26 -60 30v-197q29 4 57 31l46 -67q-39 -38 -103 -49v-60h-55zM187 44v200q-30 -8 -47.5 -37t-17.5 -66q0 -38 17 -64.5t48 -32.5z" />
    <glyph glyph-name="sterling" unicode="&#xa3;" horiz-adv-x="363" 
d="M137 79h206v-79h-323v80q67 46 73 132h-64v76h63l-2 72q-1 72 37 114t101 42q59 0 110 -34l-35 -65q-34 26 -64 26q-59 0 -57 -83q1 -11 1.5 -35.5t0.5 -36.5h96v-76h-96q-8 -88 -47 -133z" />
    <glyph glyph-name="currency" unicode="&#xa4;" horiz-adv-x="470" 
d="M404 87l-76 74q-41 -25 -95 -25q-55 0 -94 24l-73 -72q-6 -6 -19 3t-21.5 22.5t-3.5 17.5l70 70q-33 46 -33 101q0 59 33 101l-70 70q-5 5 3.5 18t21 22t18.5 3l74 -72q42 25 94 25q55 0 97 -25l73 72q6 6 19 -2.5t21.5 -22t3.5 -18.5l-72 -71q32 -43 32 -100
q0 -53 -32 -100l73 -71q8 -8 -13 -31t-31 -13zM234 206q43 0 67 28t24 70q-1 41 -25 68.5t-66 27.5t-67.5 -28t-25.5 -69q-1 -42 24.5 -69.5t68.5 -27.5z" />
    <glyph glyph-name="yen" unicode="&#xa5;" horiz-adv-x="404" 
d="M151 0v105h-72v49h72v32h-72v56h69l-123 246h92l86 -168l85 168h91l-124 -246h71v-56h-75v-32h75v-49h-75v-105h-100z" />
    <glyph glyph-name="copyright" unicode="&#xa9;" horiz-adv-x="680" 
d="M340 -26q-126 0 -210 84q-83 85 -83 203q0 117 81 203q84 84 212 84q130 0 212 -84q81 -83 81 -203q0 -118 -82 -203q-84 -84 -211 -84zM340 54q85 0 141 58q56 59 56 150t-56 147q-57 59 -141 59q-85 0 -141 -59q-56 -56 -56 -147t56 -150q56 -58 141 -58zM347 110
q-65 0 -107 45q-40 43 -40 107q0 62 39 104q42 47 108 47q62 0 97 -40l-42 -45q-20 23 -55 23q-34 0 -53 -23t-19 -66q0 -40 19 -64.5t53 -24.5q36 0 60 24l38 -40q-38 -47 -98 -47z" />
    <glyph glyph-name="guillemotleft" unicode="&#xab;" horiz-adv-x="632" 
d="M318 1q-78 2 -154 68.5t-114 165.5q39 98 114.5 164.5t153.5 68.5v-111q-96 -37 -138 -122q41 -84 138 -123v-111zM592 1q-78 2 -154 68.5t-114 165.5q39 98 114.5 164.5t153.5 68.5v-111q-96 -37 -139 -122q42 -84 139 -123v-111z" />
    <glyph glyph-name="registered" unicode="&#xae;" horiz-adv-x="333" 
d="M167 418q-64 0 -100 39q-37 39 -37 93q0 53 40 93q39 39 97 39q64 0 100 -39t36 -93q0 -57 -36 -93q-36 -39 -100 -39zM167 455q40 0 64.5 26t24.5 69t-24.5 69t-64.5 26q-41 0 -65.5 -26t-24.5 -69t24.5 -69t65.5 -26zM123 489v134h46q21 0 32.5 -10.5t11.5 -28.5
q0 -25 -19 -33l37 -62h-33l-31 52h-13v-52h-31zM154 564h8q21 0 21 18q0 16 -20 16h-9v-34z" />
    <glyph glyph-name="guillemotright" unicode="&#xbb;" horiz-adv-x="632" 
d="M40 1v111q97 39 138 123q-42 85 -138 122v111q78 -2 153.5 -68.5t114.5 -164.5q-38 -99 -114 -165.5t-154 -68.5zM314 1v111q96 39 138 123q-43 85 -138 122v111q77 -2 153 -68.5t115 -164.5q-39 -99 -114.5 -165.5t-153.5 -68.5z" />
    <glyph glyph-name="multiply" unicode="&#xd7;" horiz-adv-x="495" 
d="M440 320l-107 -107l107 -108l-87 -84l-106 106l-107 -108l-85 88l106 106l-106 105l85 88l107 -108l106 106z" />
    <glyph glyph-name="divide" unicode="&#xf7;" horiz-adv-x="440" 
d="M220 306q-29 0 -47 18.5t-18 48.5q0 29 18 47t47 18q30 0 47.5 -18t17.5 -47q0 -30 -17.5 -48.5t-47.5 -18.5zM45 151v121h350v-121h-350zM220 -19q-29 0 -47 18t-18 48q0 29 18 47t47 18q30 0 47.5 -18t17.5 -47q0 -30 -17.5 -48t-47.5 -18z" />
    <glyph glyph-name="uni060C" unicode="&#x60c;" horiz-adv-x="298" 
d="M153 -5q-40 0 -64.5 27.5t-24.5 72.5q0 52 29.5 108t78.5 88l39 -26q-44 -46 -56 -97h9q37 0 57.5 -23.5t20.5 -57.5q1 -36 -23 -64t-66 -28z" />
    <glyph glyph-name="uni061B" unicode="&#x61b;" horiz-adv-x="304" 
d="M154 262q-40 0 -64.5 27.5t-24.5 72.5q0 52 29.5 108t78.5 88l39 -26q-44 -46 -56 -97h9q37 0 57.5 -23.5t20.5 -57.5q1 -36 -23 -64t-66 -28zM146 -5q-37 0 -56.5 22.5t-18.5 54.5q2 29 21.5 49t53.5 20q35 0 54.5 -21.5t18.5 -52.5q0 -30 -19 -51t-54 -21z" />
    <glyph glyph-name="uni061F" unicode="&#x61f;" horiz-adv-x="388" 
d="M200 166q6 16 5.5 30.5t-4 25t-14 24.5t-19.5 23l-27 26.5l-30 29.5q-61 61 -61 127q0 61 43 110.5t121 49.5q73 0 134 -51v-123q-76 72 -134 68q-24 -1 -37 -16t-13 -37q0 -31 27 -58q6 -6 18 -17l22 -19.5t23.5 -22.5t22.5 -26.5t19.5 -30t14 -33.5t6.5 -38t-4 -42
h-113zM249 -22q-37 0 -56.5 22.5t-18.5 54.5q2 29 21.5 49t53.5 20q35 0 54.5 -21.5t18.5 -52.5q0 -30 -19 -51t-54 -21z" />
    <glyph glyph-name="uni0621" unicode="&#x621;" horiz-adv-x="542" 
d="M35 -65v121q40 25 87 36q-32 61 -32 126q0 104 54.5 158t129.5 58q96 8 163 -68v-117q-81 79 -150 71q-33 -5 -52.5 -30t-19.5 -68q0 -67 43 -110q7 0 20 0.5t20 1.5q113 7 194 61l-1 -114q-84 -61 -228 -61q-137 0 -228 -65z" />
    <glyph glyph-name="uni0622" unicode="&#x622;" horiz-adv-x="266" 
d="M192 698q-21 0 -55.5 19.5t-47.5 19.5q-18 0 -48 -35l-43 38q45 58 90 58q22 0 56.5 -19.5t47.5 -19.5q17 0 49 35l42 -39q-46 -57 -91 -57zM70 0v578l126 67v-645h-126z" />
    <glyph glyph-name="uni0623" unicode="&#x623;" horiz-adv-x="266" 
d="M32 701l32 58h29q-14 28 -9.5 54t24.5 44q21 20 52 21t63 -24v-58q-23 21 -46.5 23.5t-30.5 -8.5q-21 -21 5 -52h102l-31 -58h-190zM70 0v578l126 67v-645h-126z" />
    <glyph glyph-name="uni0624" unicode="&#x624;" horiz-adv-x="492" 
d="M339 622l-31 -58h-190l32 58h29q-14 28 -9.5 54t24.5 44q21 20 52 21t63 -24v-58q-23 21 -46.5 23.5t-30.5 -8.5q-21 -21 5 -52h102zM250 461q83 0 132.5 -50t49.5 -135v-175q0 -125 -62.5 -188.5t-157.5 -63.5q-62 0 -123 36v109q61 -34 114 -34q71 0 95 67
q-24 -4 -56 -4q-86 0 -139 60t-53 149q0 102 53.5 165.5t146.5 63.5zM307 278q0 66 -57 66q-36 0 -56.5 -29.5t-20.5 -78.5t20 -77.5t56 -28.5q40 0 58 20v128z" />
    <glyph glyph-name="uni0625" unicode="&#x625;" horiz-adv-x="266" 
d="M70 0v578l126 67v-645h-126zM25 -272l32 58h29q-14 28 -9.5 54t24.5 44q21 20 52 21t63 -24v-58q-23 21 -46.5 23.5t-30.5 -8.5q-21 -21 5 -52h102l-31 -58h-190z" />
    <glyph glyph-name="uni0626" unicode="&#x626;" horiz-adv-x="755" 
d="M77 422l32 58h29q-14 28 -9.5 54t24.5 44q21 20 52 21t63 -24v-58q-23 21 -46.5 23.5t-30.5 -8.5q-21 -21 5 -52h102l-31 -58h-190zM382 -181q-156 0 -234 79t-78 190q0 79 37 138l120 25q-40 -68 -40 -143q0 -73 47 -120.5t148 -47.5q90 0 139 26.5t49 69.5
q0 24 -26 39.5t-63.5 28t-75 30.5t-63.5 56.5t-26 95.5q0 83 51 129t117 46q46 0 89 -18.5t70 -52.5v-107q-72 66 -138 66q-30 0 -50 -17t-20 -47q0 -36 27 -58t65 -34.5t76.5 -27t65 -47t26.5 -83.5q0 -96 -85 -156t-228 -60z" />
    <glyph glyph-name="uni0627" unicode="&#x627;" horiz-adv-x="266" 
d="M70 0v578l126 67v-645h-126z" />
    <glyph glyph-name="uni0628" unicode="&#x628;" horiz-adv-x="858" 
d="M246 0q-79 0 -127.5 51t-48.5 135v102l125 66v-160q0 -40 16.5 -56.5t54.5 -16.5h326q38 0 54 16.5t16 56.5v184l126 66v-258q0 -85 -50.5 -135.5t-134.5 -50.5h-357zM413 -223q-30 0 -48 18t-18 49q0 29 18 47t48 18t47.5 -18t17.5 -47q0 -30 -17.5 -48.5t-47.5 -18.5z
" />
    <glyph glyph-name="uni0629" unicode="&#x629;" horiz-adv-x="481" 
d="M166 565q-30 0 -48 18t-18 49q0 30 18 47.5t48 17.5t47.5 -18t17.5 -47q0 -30 -17.5 -48.5t-47.5 -18.5zM320 565q-30 0 -48 18t-18 49q0 30 18 47.5t48 17.5t47.5 -18t17.5 -47q0 -30 -17.5 -48.5t-47.5 -18.5zM235 0q-89 0 -142 56.5t-53 148.5q0 91 52.5 157.5
t147.5 98.5q95 -32 148 -98.5t53 -157.5q0 -92 -53 -148.5t-143 -56.5h-10zM234 121h13q35 0 52.5 23t17.5 60q0 43 -20 80.5t-57 58.5q-36 -21 -56 -58t-20 -79q0 -38 18 -61.5t52 -23.5z" />
    <glyph glyph-name="uni062A" unicode="&#x62a;" horiz-adv-x="898" 
d="M382 465q-30 0 -48 18.5t-18 48.5t18 47.5t48 17.5t47.5 -18t17.5 -47q0 -30 -17.5 -48.5t-47.5 -18.5zM536 465q-30 0 -48 18t-18 49q0 30 18 47.5t48 17.5t47.5 -18t17.5 -47q0 -30 -17.5 -48.5t-47.5 -18.5zM246 0q-79 0 -127.5 51t-48.5 135v102l125 66v-160
q0 -40 16.5 -56.5t54.5 -16.5h326q38 0 54 16.5t16 56.5v184l126 66v-258q0 -85 -50.5 -135.5t-134.5 -50.5h-357z" />
    <glyph glyph-name="uni062B" unicode="&#x62b;" horiz-adv-x="898" 
d="M458 612q-28 0 -44 16.5t-16 45.5q0 27 16 43.5t44 16.5t44.5 -16.5t16.5 -43.5q0 -28 -16.5 -45t-44.5 -17zM382 465q-30 0 -48 18.5t-18 48.5t18 47.5t48 17.5t47.5 -18t17.5 -47q0 -30 -17.5 -48.5t-47.5 -18.5zM536 465q-30 0 -48 18t-18 49q0 30 18 47.5t48 17.5
t47.5 -18t17.5 -47q0 -30 -17.5 -48.5t-47.5 -18.5zM246 0q-79 0 -127.5 51t-48.5 135v102l125 66v-160q0 -40 16.5 -56.5t54.5 -16.5h326q38 0 54 16.5t16 56.5v184l126 66v-258q0 -85 -50.5 -135.5t-134.5 -50.5h-357z" />
    <glyph glyph-name="uni062C" unicode="&#x62c;" horiz-adv-x="631" 
d="M311 -375q-111 0 -186 70t-75 198q0 125 73 196q40 39 103.5 59t126.5 35t96 41q-69 121 -166 121q-82 0 -175 -87v111q84 92 187 92q76 1 151.5 -54t134.5 -165v-50q-24 -42 -61.5 -68.5t-79 -39t-82.5 -21.5t-80.5 -23t-63.5 -35q-43 -40 -43 -113q0 -74 41.5 -110.5
t111.5 -35.5q98 0 184 54v-119q-87 -56 -197 -56zM331 -160q-25 0 -40.5 15.5t-15.5 41.5q0 25 15.5 40.5t40.5 15.5q26 0 41 -15.5t15 -40.5q0 -26 -15 -41.5t-41 -15.5z" />
    <glyph glyph-name="uni062D" unicode="&#x62d;" horiz-adv-x="631" 
d="M311 -375q-111 0 -186 70t-75 198q0 125 73 196q40 39 103.5 59t126.5 35t96 41q-69 121 -166 121q-82 0 -175 -87v111q84 92 187 92q76 1 151.5 -54t134.5 -165v-50q-24 -42 -61.5 -68.5t-79 -39t-82.5 -21.5t-80.5 -23t-63.5 -35q-43 -40 -43 -113q0 -74 41.5 -110.5
t111.5 -35.5q98 0 184 54v-119q-87 -56 -197 -56z" />
    <glyph glyph-name="uni062E" unicode="&#x62e;" horiz-adv-x="631" 
d="M304 545q-30 0 -48 18t-18 49q0 29 18 47t48 18t47.5 -18t17.5 -47q0 -30 -17.5 -48.5t-47.5 -18.5zM311 -375q-111 0 -186 70t-75 198q0 125 73 196q40 39 103.5 59t126.5 35t96 41q-69 121 -166 121q-82 0 -175 -87v111q84 92 187 92q76 1 151.5 -54t134.5 -165v-50
q-24 -42 -61.5 -68.5t-79 -39t-82.5 -21.5t-80.5 -23t-63.5 -35q-43 -40 -43 -113q0 -74 41.5 -110.5t111.5 -35.5q98 0 184 54v-119q-87 -56 -197 -56z" />
    <glyph glyph-name="uni062F" unicode="&#x62f;" horiz-adv-x="477" 
d="M10 0l63 121h158q25 0 38 12.5t13 46.5q0 111 -106 170l62 106q170 -100 170 -278q0 -92 -42 -135t-112 -43h-244z" />
    <glyph glyph-name="uni0630" unicode="&#x630;" horiz-adv-x="477" 
d="M240 545q-30 0 -48 18t-18 49q0 29 18 47t48 18t47.5 -18t17.5 -47q0 -30 -17.5 -48.5t-47.5 -18.5zM10 0l63 121h158q25 0 38 12.5t13 46.5q0 111 -106 170l62 106q170 -100 170 -278q0 -92 -42 -135t-112 -43h-244z" />
    <glyph glyph-name="uni0631" unicode="&#x631;" horiz-adv-x="335" 
d="M131 -137q-101 -44 -209 15v110q89 -49 154 -19q64 29 64 124v284l125 67v-343q0 -91 -36.5 -151.5t-97.5 -86.5z" />
    <glyph glyph-name="uni0632" unicode="&#x632;" horiz-adv-x="335" 
d="M200 545q-30 0 -48 18t-18 49q0 29 18 47t48 18t47.5 -18t17.5 -47q0 -30 -17.5 -48.5t-47.5 -18.5zM131 -137q-101 -44 -209 15v110q89 -49 154 -19q64 29 64 124v284l125 67v-343q0 -91 -36.5 -151.5t-97.5 -86.5z" />
    <glyph glyph-name="uni0633" unicode="&#x633;" horiz-adv-x="1348" 
d="M1153 378l125 66v-257q0 -84 -49 -135t-132 -52h-95q-74 0 -121 39q-47 -38 -118 -39h-96q-40 0 -73 12q-27 -75 -94 -119t-163 -44q-126 0 -196.5 80t-70.5 189q0 79 37 138l120 25q-40 -68 -40 -143q0 -70 39.5 -119t110.5 -49q70 0 108 35.5t38 97.5v222l126 66v-198
q0 -39 16.5 -55.5t54.5 -16.5h67q38 0 54.5 16.5t16.5 55.5v158l125 67v-225q0 -39 16.5 -55.5t54.5 -16.5h68q38 0 54.5 16.5t16.5 55.5v185z" />
    <glyph glyph-name="uni0634" unicode="&#x634;" horiz-adv-x="1348" 
d="M882 679q-28 0 -44 16.5t-16 44.5q0 27 16 43t44 16t43.5 -16t15.5 -43q0 -28 -15.5 -44.5t-43.5 -16.5zM806 532q-30 0 -48 18t-18 49q0 30 18 47.5t48 17.5t47.5 -18t17.5 -47q0 -30 -17.5 -48.5t-47.5 -18.5zM894 599q0 30 18 47.5t48 17.5t47.5 -18t17.5 -47
q0 -30 -17.5 -48.5t-47.5 -18.5t-48 18t-18 49zM1153 378l125 66v-257q0 -84 -49 -135t-132 -52h-95q-74 0 -121 39q-47 -38 -118 -39h-96q-40 0 -73 12q-27 -75 -94 -119t-163 -44q-126 0 -196.5 80t-70.5 189q0 79 37 138l120 25q-40 -68 -40 -143q0 -70 39.5 -119
t110.5 -49q70 0 108 35.5t38 97.5v222l126 66v-198q0 -39 16.5 -55.5t54.5 -16.5h67q38 0 54.5 16.5t16.5 55.5v158l125 67v-225q0 -39 16.5 -55.5t54.5 -16.5h68q38 0 54.5 16.5t16.5 55.5v185z" />
    <glyph glyph-name="uni0635" unicode="&#x635;" horiz-adv-x="1343" 
d="M1034 461q110 0 179.5 -72t69.5 -181v-22q0 -85 -50 -135.5t-134 -50.5h-432q-40 0 -73 12q-27 -75 -94 -119t-163 -44q-126 0 -196.5 80t-70.5 189q0 79 37 138l120 25q-40 -68 -40 -143q0 -70 39.5 -119t110.5 -49q70 0 108 35.5t38 97.5v222l126 66v-198q0 -64 51 -71
q15 47 37 91.5t55.5 90.5t73.5 80t94 55.5t114 21.5zM1157 194v14q0 61 -34 98.5t-88 37.5q-81 0 -148 -62.5t-104 -160.5h311q36 0 49.5 15.5t13.5 57.5z" />
    <glyph glyph-name="uni0636" unicode="&#x636;" horiz-adv-x="1343" 
d="M1034 545q-30 0 -48 18t-18 49q0 29 18 47t48 18t47.5 -18t17.5 -47q0 -30 -17.5 -48.5t-47.5 -18.5zM1034 461q110 0 179.5 -72t69.5 -181v-22q0 -85 -50 -135.5t-134 -50.5h-432q-40 0 -73 12q-27 -75 -94 -119t-163 -44q-126 0 -196.5 80t-70.5 189q0 79 37 138
l120 25q-40 -68 -40 -143q0 -70 39.5 -119t110.5 -49q70 0 108 35.5t38 97.5v222l126 66v-198q0 -64 51 -71q15 47 37 91.5t55.5 90.5t73.5 80t94 55.5t114 21.5zM1157 194v14q0 61 -34 98.5t-88 37.5q-81 0 -148 -62.5t-104 -160.5h311q36 0 49.5 15.5t13.5 57.5z" />
    <glyph glyph-name="uni0637" unicode="&#x637;" horiz-adv-x="901" 
d="M592 461q111 0 180 -71.5t69 -181.5v-24q0 -88 -47 -136t-127 -48h-647l64 121h134v457l126 67v-302q107 118 248 118zM716 189v19q0 61 -34.5 98.5t-88.5 37.5q-80 0 -146 -63.5t-102 -159.5h317q31 0 42.5 12t11.5 56z" />
    <glyph glyph-name="uni0638" unicode="&#x638;" horiz-adv-x="901" 
d="M591 545q-30 0 -48 18t-18 49q0 29 18 47t48 18t47.5 -18t17.5 -47q0 -30 -17.5 -48.5t-47.5 -18.5zM592 461q111 0 180 -71.5t69 -181.5v-24q0 -88 -47 -136t-127 -48h-647l64 121h134v457l126 67v-302q107 118 248 118zM716 189v19q0 61 -34.5 98.5t-88.5 37.5
q-80 0 -146 -63.5t-102 -159.5h317q31 0 42.5 12t11.5 56z" />
    <glyph glyph-name="uni0639" unicode="&#x639;" horiz-adv-x="561" 
d="M318 -375q-115 0 -191.5 68.5t-76.5 181.5q0 53 23.5 103t69.5 84q-77 63 -77 181q0 99 63.5 158.5t148.5 59.5q109 0 173 -92v-111q-74 88 -162 86q-44 -1 -71 -28.5t-27 -76.5q0 -51 32.5 -84.5t96.5 -33.5h179v-121h-177q-78 0 -114.5 -36t-35.5 -90q0 -59 42 -94
t112 -34q97 0 185 54v-119q-87 -56 -193 -56z" />
    <glyph glyph-name="uni063A" unicode="&#x63a;" horiz-adv-x="561" 
d="M298 545q-30 0 -48 18t-18 49q0 29 18 47t48 18t47.5 -18t17.5 -47q0 -30 -17.5 -48.5t-47.5 -18.5zM318 -375q-115 0 -191.5 68.5t-76.5 181.5q0 53 23.5 103t69.5 84q-77 63 -77 181q0 99 63.5 158.5t148.5 59.5q109 0 173 -92v-111q-74 88 -162 86q-44 -1 -71 -28.5
t-27 -76.5q0 -51 32.5 -84.5t96.5 -33.5h179v-121h-177q-78 0 -114.5 -36t-35.5 -90q0 -59 42 -94t112 -34q97 0 185 54v-119q-87 -56 -193 -56z" />
    <glyph glyph-name="uni0640" unicode="&#x640;" horiz-adv-x="116" 
d="M-10 0v121h136v-121h-136z" />
    <glyph glyph-name="uni0641" unicode="&#x641;" horiz-adv-x="940" 
d="M708 532q-30 0 -48 18t-18 49q0 29 18 47t48 18t47.5 -18t17.5 -47q0 -30 -17.5 -48.5t-47.5 -18.5zM266 0q-88 0 -142 56.5t-54 149.5v101l126 67v-160q0 -51 19 -72t65 -21h248q-30 42 -30 110q0 103 53.5 166.5t146.5 63.5q83 0 132.5 -50t49.5 -135v-90
q0 -80 -47.5 -133t-136.5 -53h-430zM695 121q59 0 59 65v92q0 66 -56 66q-36 0 -56.5 -29.5t-20.5 -79.5q0 -53 19 -83.5t55 -30.5z" />
    <glyph glyph-name="uni0642" unicode="&#x642;" horiz-adv-x="759" 
d="M441 532q-30 0 -48 18t-18 49q0 30 18 47.5t48 17.5t47.5 -18t17.5 -47q0 -30 -17.5 -48.5t-47.5 -18.5zM595 532q-30 0 -48 18t-18 49q0 30 18 47.5t48 17.5t47.5 -18t17.5 -47q0 -30 -17.5 -48.5t-47.5 -18.5zM382 -181q-156 0 -234 79t-78 190q0 79 37 138l120 25
q-40 -68 -40 -143q0 -73 47 -120.5t148 -47.5q160 0 183 97q-21 -14 -56 -14q-86 0 -139 60.5t-53 148.5q0 102 53.5 165.5t146.5 63.5q83 0 132.5 -50t49.5 -135v-203q0 -115 -81.5 -184.5t-235.5 -69.5zM516 130q43 0 57 22v126q0 66 -56 66q-36 0 -56.5 -29.5
t-20.5 -78.5t20 -77.5t56 -28.5z" />
    <glyph glyph-name="uni0643" unicode="&#x643;" horiz-adv-x="857" 
d="M662 579l125 66v-459q0 -85 -50 -135.5t-134 -50.5h-357q-79 0 -127.5 51t-48.5 135v102l125 66v-160q0 -40 16.5 -56.5t54.5 -16.5h326q38 0 54 16.5t16 56.5v385zM522 415q0 -38 -21 -60t-58 -22h-128l31 58h91q27 0 27 27t-29 33t-63 -15v50l87 95h73l-73 -82
q63 -14 63 -84z" />
    <glyph glyph-name="uni0644" unicode="&#x644;" horiz-adv-x="730" 
d="M350 -151q-134 0 -207 79t-73 186q0 78 36 138l124 28q-41 -65 -41 -149q0 -69 41 -115t120 -46q74 0 116.5 41.5t42.5 110.5v456l125 67v-523q0 -119 -78.5 -196t-205.5 -77z" />
    <glyph glyph-name="uni0645" unicode="&#x645;" horiz-adv-x="603" 
d="M20 -315v249q0 80 44.5 130t123.5 56q-27 42 -27 111q0 103 53.5 166.5t146.5 63.5q83 0 132.5 -50t49.5 -135v-119q-1 -80 -53.5 -118t-134.5 -39h-139q-38 0 -54 -16.5t-16 -55.5v-177zM359 121q30 0 44 13t14 43v101q0 66 -56 66q-36 0 -56.5 -29.5t-20.5 -79.5
q0 -114 75 -114z" />
    <glyph glyph-name="uni0646" unicode="&#x646;" horiz-adv-x="679" 
d="M288 433q-30 0 -48 18t-18 49q0 29 18 47t48 18t47.5 -18t17.5 -47q0 -30 -17.5 -48.5t-47.5 -18.5zM337 -151q-126 0 -196.5 80t-70.5 189q0 79 37 138l120 25q-40 -68 -40 -143q0 -70 39.5 -119t110.5 -49q70 0 108 35.5t38 97.5v275l126 66v-341q0 -112 -74 -183
t-198 -71z" />
    <glyph glyph-name="uni0647" unicode="&#x647;" horiz-adv-x="481" 
d="M235 0q-89 0 -142 56.5t-53 148.5q0 91 52.5 157.5t147.5 98.5q95 -32 148 -98.5t53 -157.5q0 -92 -53 -148.5t-143 -56.5h-10zM234 121h13q35 0 52.5 23t17.5 60q0 43 -20 80.5t-57 58.5q-36 -21 -56 -58t-20 -79q0 -38 18 -61.5t52 -23.5z" />
    <glyph glyph-name="uni0648" unicode="&#x648;" horiz-adv-x="492" 
d="M250 461q83 0 132.5 -50t49.5 -135v-175q0 -125 -62.5 -188.5t-157.5 -63.5q-62 0 -123 36v109q61 -34 114 -34q71 0 95 67q-24 -4 -56 -4q-86 0 -139 60t-53 149q0 102 53.5 165.5t146.5 63.5zM307 278q0 66 -57 66q-36 0 -56.5 -29.5t-20.5 -78.5t20 -77.5t56 -28.5
q40 0 58 20v128z" />
    <glyph glyph-name="uni0649" unicode="&#x649;" horiz-adv-x="755" 
d="M382 -181q-156 0 -234 79t-78 190q0 79 37 138l120 25q-40 -68 -40 -143q0 -73 47 -120.5t148 -47.5q90 0 139 26.5t49 69.5q0 24 -26 39.5t-63.5 28t-75 30.5t-63.5 56.5t-26 95.5q0 83 51 129t117 46q46 0 89 -18.5t70 -52.5v-107q-72 66 -138 66q-30 0 -50 -17
t-20 -47q0 -36 27 -58t65 -34.5t76.5 -27t65 -47t26.5 -83.5q0 -96 -85 -156t-228 -60z" />
    <glyph glyph-name="uni064A" unicode="&#x64a;" horiz-adv-x="755" 
d="M382 -181q-156 0 -234 79t-78 190q0 79 37 138l120 25q-40 -68 -40 -143q0 -73 47 -120.5t148 -47.5q90 0 139 26.5t49 69.5q0 24 -26 39.5t-63.5 28t-75 30.5t-63.5 56.5t-26 95.5q0 83 51 129t117 46q46 0 89 -18.5t70 -52.5v-107q-72 66 -138 66q-30 0 -50 -17
t-20 -47q0 -36 27 -58t65 -34.5t76.5 -27t65 -47t26.5 -83.5q0 -96 -85 -156t-228 -60zM315 -411q-30 0 -48 18t-18 49q0 30 18 47.5t48 17.5t47.5 -18t17.5 -47q0 -30 -17.5 -48.5t-47.5 -18.5zM469 -411q-30 0 -48 18t-18 49q0 30 18 47.5t48 17.5t47.5 -18t17.5 -47
q0 -30 -17.5 -48.5t-47.5 -18.5z" />
    <glyph glyph-name="uni064B" unicode="&#x64b;" 
d="M23 706l45 96l264 48l-45 -96zM0 565l45 97l263 47l-45 -96z" />
    <glyph glyph-name="uni064C" unicode="&#x64c;" 
d="M351 718q4 -64 -38.5 -103t-102.5 -39q-64 -2 -112 43l-21 -35l-76 52l63 94h30q35 -50 83 -56q-9 21 -9 44q0 41 26.5 71t64.5 30q41 0 65.5 -29t26.5 -72zM263 690q18 14 18 34q0 26 -20 26q-8 0 -14.5 -7t-6.5 -19q0 -22 23 -34z" />
    <glyph glyph-name="uni064D" unicode="&#x64d;" 
d="M23 706l45 96l264 48l-45 -96zM0 565l45 97l263 47l-45 -96z" />
    <glyph glyph-name="uni064E" unicode="&#x64e;" 
d="M0 565l45 97l263 47l-45 -96z" />
    <glyph glyph-name="uni064F" unicode="&#x64f;" 
d="M0 565l45 97l98 17q-11 21 -11 42q0 42 26.5 72t64.5 30q41 0 66.5 -30t25.5 -72q0 -48 -27.5 -78.5t-63.5 -36.5zM226 694q19 14 19 33q0 27 -20 27q-8 0 -14.5 -7.5t-6.5 -19.5q0 -20 22 -33z" />
    <glyph glyph-name="uni0650" unicode="&#x650;" 
d="M0 565l45 97l263 47l-45 -96z" />
    <glyph glyph-name="uni0651" unicode="&#x651;" 
d="M205 707l71 39v-103q0 -36 -25.5 -57t-61.5 -21q-31 0 -52 14q-22 -14 -51 -14q-35 -1 -60.5 20t-25.5 58v43l70 39v-78q0 -14 17 -14q16 0 16 13v51l70 39v-90q0 -13 16 -13t16 14v60z" />
    <glyph glyph-name="uni0652" unicode="&#x652;" 
d="M88 564q-43 0 -65.5 23t-22.5 58q0 37 23.5 69t64.5 42q41 -10 64.5 -42t24.5 -68q-1 -35 -23.5 -58.5t-65.5 -23.5zM88 627q21 0 21 26q0 22 -21 32q-22 -9 -22 -32q0 -11 6 -18.5t16 -7.5z" />
    <glyph glyph-name="uni0653" unicode="&#x653;" 
d="M205 671q-21 0 -55.5 19.5t-47.5 19.5q-18 0 -48 -35l-43 38q45 58 90 58q22 0 56.5 -19.5t47.5 -19.5q17 0 49 35l42 -39q-46 -57 -91 -57z" />
    <glyph glyph-name="uni0654" unicode="&#x654;" 
d="M-4 653l32 58h29q-14 28 -9.5 54t24.5 44q21 20 52 21t63 -24v-58q-23 21 -46.5 23.5t-30.5 -8.5q-21 -21 5 -52h102l-31 -58h-190z" />
    <glyph glyph-name="uni0655" unicode="&#x655;" 
d="M-4 653l32 58h29q-14 28 -9.5 54t24.5 44q21 20 52 21t63 -24v-58q-23 21 -46.5 23.5t-30.5 -8.5q-21 -21 5 -52h102l-31 -58h-190z" />
    <glyph glyph-name="uni0660" unicode="&#x660;" horiz-adv-x="340" 
d="M171 89l-131 132l131 128l129 -128z" />
    <glyph glyph-name="uni0661" unicode="&#x661;" horiz-adv-x="266" 
d="M70 -15v580h126v-513z" />
    <glyph glyph-name="uni0662" unicode="&#x662;" horiz-adv-x="415" 
d="M65 -15v425q0 72 44 113.5t119 41.5h162v-121h-150q-49 0 -49 -43v-348z" />
    <glyph glyph-name="uni0663" unicode="&#x663;" horiz-adv-x="614" 
d="M470 565h114v-123q0 -62 -42.5 -102t-110.5 -40q-58 0 -98 28q-39 -28 -96 -28q-24 0 -41 4v-252l-126 -67v580h126v-123q0 -16 11 -25.5t29 -9.5q40 0 40 35v93h114v-93q0 -35 41 -35q39 0 39 35v123z" />
    <glyph glyph-name="uni0664" unicode="&#x664;" horiz-adv-x="440" 
d="M225 0q-87 0 -136 50t-49 120q0 73 60 125q-51 43 -49 107q0 64 50 113.5t132 49.5h111v-113h-97q-33 0 -52 -18t-19 -42t19 -42.5t52 -18.5h72v-87h-78q-36 0 -56 -19.5t-20 -46.5q1 -26 21 -45t55 -19h101l73 -114h-190z" />
    <glyph glyph-name="uni0665" unicode="&#x665;" horiz-adv-x="461" 
d="M232 -10q-98 0 -149 51t-53 133q-2 91 52 180t150 142q95 -53 148 -142.5t51 -179.5q-2 -82 -52.5 -133t-146.5 -51zM232 104q47 0 71.5 25.5t25.5 68.5q0 49 -25.5 98t-71.5 83q-46 -34 -72 -82t-27 -97q0 -43 25 -69.5t74 -26.5z" />
    <glyph glyph-name="uni0666" unicode="&#x666;" horiz-adv-x="415" 
d="M225 -15v416q0 43 -50 43h-150v121h162q75 0 119 -41.5t44 -113.5v-357z" />
    <glyph glyph-name="uni0667" unicode="&#x667;" horiz-adv-x="539" 
d="M188 0l-168 565h127l120 -405h2l122 405h128l-171 -565h-160z" />
    <glyph glyph-name="uni0668" unicode="&#x668;" horiz-adv-x="539" 
d="M20 0l168 565h160l171 -565h-128l-122 405h-2l-120 -405h-127z" />
    <glyph glyph-name="uni0669" unicode="&#x669;" horiz-adv-x="456" 
d="M265 -15v225q-62 -26 -117 -3q-113 38 -113 175q0 91 51 142.5t132 51.5q74 0 123.5 -47t49.5 -130v-346zM210 309q29 -2 55 17v77q0 59 -51 59q-29 0 -44.5 -22t-15.5 -54q0 -34 15.5 -54.5t40.5 -22.5z" />
    <glyph glyph-name="uni066A" unicode="&#x66a;" horiz-adv-x="731" 
d="M156 0l291 565h126l-291 -565h-126zM173 347l-103 103l103 102l101 -102zM560 18l-103 103l103 101l101 -101z" />
    <glyph glyph-name="uni066B" unicode="&#x66b;" horiz-adv-x="298" 
d="M135 -120l-40 25q45 47 57 97h-9q-38 0 -58 23.5t-21 57.5q0 37 24 64.5t66 27.5q40 0 64 -27t24 -73q0 -52 -29 -108t-78 -87z" />
    <glyph glyph-name="uni066C" unicode="&#x66c;" horiz-adv-x="298" 
d="M135 -120l-40 25q45 47 57 97h-9q-38 0 -58 23.5t-21 57.5q0 37 24 64.5t66 27.5q40 0 64 -27t24 -73q0 -52 -29 -108t-78 -87z" />
    <glyph glyph-name="uni066D" unicode="&#x66d;" horiz-adv-x="364" 
d="M183 408q-16 0 -26.5 8.5t-10.5 23.5q1 19 22 64q-31 -44 -43 -52q-13 -8 -25.5 -4t-21.5 17t-7.5 27.5t14.5 22.5q12 9 68 16q-55 7 -68 14q-27 16 -9 48q21 34 47 16q9 -6 42 -46q-19 38 -19 57q-1 15 9.5 23.5t26.5 8.5t27.5 -9t10.5 -23q0 -9 -18 -54q27 35 40 43
q12 7 25 1t21 -20q7 -12 4.5 -26.5t-15.5 -20.5q-9 -5 -61 -12q52 -7 63 -14q12 -7 14.5 -21t-6.5 -27q-20 -34 -46 -15q-12 7 -39 44q19 -50 19 -58q1 -14 -10.5 -23t-27.5 -9z" />
    <glyph glyph-name="uni066E" unicode="&#x66e;" horiz-adv-x="858" 
d="M246 0q-79 0 -127.5 51t-48.5 135v102l125 66v-160q0 -40 16.5 -56.5t54.5 -16.5h326q38 0 54 16.5t16 56.5v184l126 66v-258q0 -85 -50.5 -135.5t-134.5 -50.5h-357z" />
    <glyph glyph-name="uni0670" unicode="&#x670;" 
d="M0 652v172l70 39v-173z" />
    <glyph glyph-name="uni067E" unicode="&#x67e;" horiz-adv-x="898" 
d="M246 0q-79 0 -127.5 51t-48.5 135v102l125 66v-160q0 -40 16.5 -56.5t54.5 -16.5h326q38 0 54 16.5t16 56.5v184l126 66v-258q0 -85 -50.5 -135.5t-134.5 -50.5h-357zM372 -242q-30 0 -48 18t-18 48t18 48.5t48 18.5t47.5 -18.5t17.5 -48.5t-17.5 -48t-47.5 -18z
M525 -242q-29 0 -47.5 18t-18.5 48t18.5 48.5t47.5 18.5q30 0 47.5 -18.5t17.5 -48.5t-17.5 -48t-47.5 -18zM448 -378q-28 0 -44.5 16t-16.5 44t16.5 44.5t44.5 16.5t44 -16.5t16 -44.5q0 -27 -16 -43.5t-44 -16.5z" />
    <glyph glyph-name="uni0686" unicode="&#x686;" horiz-adv-x="631" 
d="M311 -375q-111 0 -186 70t-75 198q0 125 73 196q40 39 103.5 59t126.5 35t96 41q-69 121 -166 121q-82 0 -175 -87v111q84 92 187 92q76 1 151.5 -54t134.5 -165v-50q-24 -42 -61.5 -68.5t-79 -39t-82.5 -21.5t-80.5 -23t-63.5 -35q-43 -40 -43 -113q0 -74 41.5 -110.5
t111.5 -35.5q98 0 184 54v-119q-87 -56 -197 -56zM311 -108q-21 0 -33.5 12.5t-12.5 33.5q0 22 12.5 34.5t33.5 12.5t33 -12.5t12 -34.5q0 -21 -12 -33.5t-33 -12.5zM422 -108q-21 0 -34 12.5t-13 33.5q0 22 13 34.5t34 12.5t33 -12.5t12 -34.5q0 -21 -12 -33.5t-33 -12.5z
M366 -204q-20 0 -31.5 11t-11.5 30t11.5 30.5t31.5 11.5t31 -11.5t11 -30.5t-11.5 -30t-30.5 -11z" />
    <glyph glyph-name="uni0698" unicode="&#x698;" horiz-adv-x="322" 
d="M179 692q-28 0 -44 16.5t-16 44.5q0 27 16 43t44 16t43.5 -16t15.5 -43q0 -28 -15.5 -44.5t-43.5 -16.5zM103 545q-30 0 -48 18t-18 49q0 30 18 47.5t48 17.5t47.5 -18t17.5 -47q0 -30 -17.5 -48.5t-47.5 -18.5zM257 545q-30 0 -48 18t-18 49q0 30 18 47.5t48 17.5
t47.5 -18t17.5 -47q0 -30 -17.5 -48.5t-47.5 -18.5zM131 -137q-101 -44 -209 15v110q89 -49 154 -19q64 29 64 124v284l125 67v-343q0 -91 -36.5 -151.5t-97.5 -86.5z" />
    <glyph glyph-name="uni06A4" unicode="&#x6a4;" horiz-adv-x="940" 
d="M695 679q-28 0 -44 16.5t-16 44.5q0 27 16 43t44 16t43.5 -16t15.5 -43q0 -28 -15.5 -44.5t-43.5 -16.5zM619 532q-30 0 -48 18t-18 49q0 30 18 47.5t48 17.5t47.5 -18t17.5 -47q0 -30 -17.5 -48.5t-47.5 -18.5zM773 532q-30 0 -48 18t-18 49q0 30 18 47.5t48 17.5
t47.5 -18t17.5 -47q0 -30 -17.5 -48.5t-47.5 -18.5zM266 0q-88 0 -142 56.5t-54 149.5v101l126 67v-160q0 -51 19 -72t65 -21h248q-30 42 -30 110q0 103 53.5 166.5t146.5 63.5q83 0 132.5 -50t49.5 -135v-90q0 -80 -47.5 -133t-136.5 -53h-430zM695 121q59 0 59 65v92
q0 66 -56 66q-36 0 -56.5 -29.5t-20.5 -79.5q0 -53 19 -83.5t55 -30.5z" />
    <glyph glyph-name="uni06A9" unicode="&#x6a9;" horiz-adv-x="837" 
d="M674 403q113 -68 113 -205v-9q0 -88 -49.5 -138.5t-133.5 -50.5h-358q-79 0 -127.5 51t-48.5 135v102l125 66v-160q0 -40 16.5 -56.5t54.5 -16.5h326q36 0 53 16.5t17 52.5v8q0 69 -65 102q-76 38 -192 -2v121l203 226h130l-181 -205q66 -6 117 -37z" />
    <glyph glyph-name="uni06AF" unicode="&#x6af;" horiz-adv-x="837" 
d="M674 403q113 -68 113 -205v-9q0 -88 -49.5 -138.5t-133.5 -50.5h-358q-79 0 -127.5 51t-48.5 135v102l125 66v-160q0 -40 16.5 -56.5t54.5 -16.5h326q36 0 53 16.5t17 52.5v8q0 69 -65 102q-76 38 -192 -2v121l203 226h130l-181 -205q66 -6 117 -37zM541 645l-196 -218
h-95l196 218h95z" />
    <glyph glyph-name="uni06CC" unicode="&#x6cc;" horiz-adv-x="755" 
d="M382 -181q-156 0 -234 79t-78 190q0 79 37 138l120 25q-40 -68 -40 -143q0 -73 47 -120.5t148 -47.5q90 0 139 26.5t49 69.5q0 24 -26 39.5t-63.5 28t-75 30.5t-63.5 56.5t-26 95.5q0 83 51 129t117 46q46 0 89 -18.5t70 -52.5v-107q-72 66 -138 66q-30 0 -50 -17
t-20 -47q0 -36 27 -58t65 -34.5t76.5 -27t65 -47t26.5 -83.5q0 -96 -85 -156t-228 -60z" />
    <glyph glyph-name="uni06F0" unicode="&#x6f0;" horiz-adv-x="340" 
d="M171 89l-131 132l131 128l129 -128z" />
    <glyph glyph-name="uni06F1" unicode="&#x6f1;" horiz-adv-x="266" 
d="M70 -15v580h126v-513z" />
    <glyph glyph-name="uni06F2" unicode="&#x6f2;" horiz-adv-x="415" 
d="M65 -15v425q0 72 44 113.5t119 41.5h162v-121h-150q-49 0 -49 -43v-348z" />
    <glyph glyph-name="uni06F3" unicode="&#x6f3;" horiz-adv-x="614" 
d="M470 565h114v-123q0 -62 -42.5 -102t-110.5 -40q-58 0 -98 28q-39 -28 -96 -28q-24 0 -41 4v-252l-126 -67v580h126v-123q0 -16 11 -25.5t29 -9.5q40 0 40 35v93h114v-93q0 -35 41 -35q39 0 39 35v123z" />
    <glyph glyph-name="uni06F4" unicode="&#x6f4;" horiz-adv-x="470" 
d="M347 467q-76 -2 -95 -82q34 -37 92 -37q44 0 96 33v-106q-57 -36 -121 -36q-71 0 -123 60v-247l-126 -67v580h126v-51q49 53 118.5 58t125.5 -40v-104q-47 40 -93 39z" />
    <glyph glyph-name="uni06F5" unicode="&#x6f5;" horiz-adv-x="473" 
d="M151 -10q-63 3 -93 50t-28 121q2 99 56 195t151 140q89 -45 146.5 -143.5t59.5 -192.5q2 -73 -28 -120t-92 -50q-42 -2 -86 35q-42 -37 -86 -35zM236 115h2q40 -35 71 -19.5t31 63.5q1 58 -25.5 119t-77.5 101q-50 -39 -76.5 -98.5t-27.5 -118.5q0 -50 31.5 -66t71.5 19z
" />
    <glyph glyph-name="uni06F6" unicode="&#x6f6;" horiz-adv-x="491" 
d="M253 270q92 72 203 124v-131q-236 -128 -411 -381v159q45 76 122 153q-108 73 -99 203q5 66 46 113t108 58q98 18 169 -48v-112q-64 59 -123 54t-73 -59q-15 -28 0 -65.5t58 -67.5z" />
    <glyph glyph-name="uni06F7" unicode="&#x6f7;" horiz-adv-x="539" 
d="M188 0l-168 565h127l120 -405h2l122 405h128l-171 -565h-160z" />
    <glyph glyph-name="uni06F8" unicode="&#x6f8;" horiz-adv-x="539" 
d="M20 0l168 565h160l171 -565h-128l-122 405h-2l-120 -405h-127z" />
    <glyph glyph-name="uni06F9" unicode="&#x6f9;" horiz-adv-x="456" 
d="M265 -15v225q-62 -26 -117 -3q-113 38 -113 175q0 91 51 142.5t132 51.5q74 0 123.5 -47t49.5 -130v-346zM210 309q29 -2 55 17v77q0 59 -51 59q-29 0 -44.5 -22t-15.5 -54q0 -34 15.5 -54.5t40.5 -22.5z" />
    <glyph glyph-name="endash" unicode="&#x2013;" horiz-adv-x="381" 
d="M70 112v121h241v-121h-241z" />
    <glyph glyph-name="emdash" unicode="&#x2014;" horiz-adv-x="622" 
d="M70 112v121h482v-121h-482z" />
    <glyph glyph-name="quoteleft" unicode="&#x2018;" horiz-adv-x="308" 
d="M159 348q-40 0 -64.5 27.5t-24.5 72.5q0 52 29.5 108t78.5 88l39 -26q-44 -46 -56 -97h9q37 0 57.5 -23.5t20.5 -57.5q1 -36 -23 -64t-66 -28z" />
    <glyph glyph-name="quoteright" unicode="&#x2019;" horiz-adv-x="308" 
d="M149 643q40 0 64.5 -27.5t24.5 -72.5q0 -52 -29.5 -108t-78.5 -88l-39 26q44 46 56 97h-9q-37 0 -57.5 23.5t-20.5 57.5q-1 36 23 64t66 28z" />
    <glyph glyph-name="quotedblleft" unicode="&#x201c;" horiz-adv-x="515" 
d="M159 348q-40 0 -64.5 27.5t-24.5 72.5q0 52 29.5 108t78.5 88l39 -26q-44 -46 -56 -97h9q37 0 57.5 -23.5t20.5 -57.5q1 -36 -23 -64t-66 -28zM366 348q-40 0 -64.5 27.5t-24.5 72.5q0 52 29.5 108t78.5 88l39 -26q-44 -46 -56 -97h9q37 0 57.5 -23.5t20.5 -57.5
q1 -36 -23 -64t-66 -28z" />
    <glyph glyph-name="quotedblright" unicode="&#x201d;" horiz-adv-x="519" 
d="M149 643q40 0 64.5 -27.5t24.5 -72.5q0 -52 -29.5 -108t-78.5 -88l-39 26q44 46 56 97h-9q-37 0 -57.5 23.5t-20.5 57.5q-1 36 23 64t66 28zM360 643q40 0 64.5 -27.5t24.5 -72.5q0 -52 -29.5 -108t-78.5 -88l-39 26q44 46 56 97h-9q-37 0 -57.5 23.5t-20.5 57.5
q-1 36 23 64t66 28z" />
    <glyph glyph-name="bullet" unicode="&#x2022;" horiz-adv-x="367" 
d="M184 150q-114 0 -114 115t114 115q113 0 113 -115t-113 -115z" />
    <glyph glyph-name="ellipsis" unicode="&#x2026;" horiz-adv-x="803" 
d="M145 -5q-37 0 -56.5 22.5t-18.5 54.5q2 29 21.5 49t53.5 20q35 0 54.5 -21.5t18.5 -52.5q0 -30 -19 -51t-54 -21zM392 -5q-37 0 -56.5 22.5t-18.5 54.5q2 29 21.5 49t53.5 20q35 0 54.5 -21.5t18.5 -52.5q0 -30 -19 -51t-54 -21zM638 -5q-37 0 -56.5 22.5t-18.5 54.5
q2 29 21.5 49t53.5 20q35 0 54.5 -21.5t18.5 -52.5q0 -30 -19 -51t-54 -21z" />
    <glyph glyph-name="guilsinglleft" unicode="&#x2039;" horiz-adv-x="358" 
d="M318 1q-78 2 -154 68.5t-114 165.5q39 98 114.5 164.5t153.5 68.5v-111q-96 -37 -138 -122q41 -84 138 -123v-111z" />
    <glyph glyph-name="guilsinglright" unicode="&#x203a;" horiz-adv-x="358" 
d="M40 1v111q97 39 138 123q-42 85 -138 122v111q78 -2 153.5 -68.5t114.5 -164.5q-38 -99 -114 -165.5t-154 -68.5z" />
    <glyph glyph-name="fraction" unicode="&#x2044;" horiz-adv-x="457" 
d="M20 0l291 565h126l-291 -565h-126z" />
    <glyph glyph-name="Euro" unicode="&#x20ac;" horiz-adv-x="459" 
d="M290 -29q-85 0 -146 53.5t-81 142.5h-68v56h61v40h-61v57h69q20 85 83.5 138t143.5 53q42 0 84.5 -19t68.5 -51l-52 -62q-43 51 -107 49q-45 -1 -81 -30.5t-45 -77.5h236v-57h-246v-40h246v-56h-237q7 -50 42.5 -80.5t82.5 -32.5q65 -2 116 43l50 -58q-68 -68 -159 -68z
" />
    <glyph glyph-name="trademark" unicode="&#x2122;" horiz-adv-x="480" 
d="M117 507v150h-57v43h158v-43h-58v-150h-43zM239 507v193h43l48 -113l47 113h43v-193h-36v112l-43 -97h-23l-43 97v-112h-36z" />
    <glyph glyph-name="minus" unicode="&#x2212;" horiz-adv-x="440" 
d="M45 112v121h350v-121h-350z" />
    <glyph glyph-name="uniFBB2" unicode="&#xfbb2;" 
d="M66 -39q-30 0 -48 18t-18 49q0 29 18 47t48 18t47.5 -18t17.5 -47q0 -30 -17.5 -48.5t-47.5 -18.5z" />
    <glyph glyph-name="uniFBB3" unicode="&#xfbb3;" 
d="M66 -39q-30 0 -48 18t-18 49q0 29 18 47t48 18t47.5 -18t17.5 -47q0 -30 -17.5 -48.5t-47.5 -18.5z" />
    <glyph glyph-name="uniFBB4" unicode="&#xfbb4;" 
d="M66 0q-30 0 -48 18t-18 49q0 30 18 47.5t48 17.5t47.5 -18t17.5 -47q0 -30 -17.5 -48.5t-47.5 -18.5zM220 0q-30 0 -48 18t-18 49q0 30 18 47.5t48 17.5t47.5 -18t17.5 -47q0 -30 -17.5 -48.5t-47.5 -18.5z" />
    <glyph glyph-name="uniFBB5" unicode="&#xfbb5;" 
d="M66 0q-30 0 -48 18t-18 49q0 30 18 47.5t48 17.5t47.5 -18t17.5 -47q0 -30 -17.5 -48.5t-47.5 -18.5zM220 0q-30 0 -48 18t-18 49q0 30 18 47.5t48 17.5t47.5 -18t17.5 -47q0 -30 -17.5 -48.5t-47.5 -18.5z" />
    <glyph glyph-name="uniFBB6" unicode="&#xfbb6;" 
d="M142 147q-28 0 -44 16.5t-16 44.5q0 27 16 43t44 16t43.5 -16t15.5 -43q0 -28 -15.5 -44.5t-43.5 -16.5zM66 0q-30 0 -48 18t-18 49q0 30 18 47.5t48 17.5t47.5 -18t17.5 -47q0 -30 -17.5 -48.5t-47.5 -18.5zM220 0q-30 0 -48 18t-18 49q0 30 18 47.5t48 17.5t47.5 -18
t17.5 -47q0 -30 -17.5 -48.5t-47.5 -18.5z" />
    <glyph glyph-name="uniFBB7" unicode="&#xfbb7;" 
d="M66 97q-30 0 -48 18t-18 48t18 48.5t48 18.5t47.5 -18.5t17.5 -48.5t-17.5 -48t-47.5 -18zM220 97q-30 0 -48 18t-18 48t18 48.5t48 18.5t47.5 -18.5t17.5 -48.5t-17.5 -48t-47.5 -18zM142 -37q-27 0 -43.5 16t-16.5 43q0 28 16.5 44t43.5 16t43 -16.5t16 -43.5t-16 -43
t-43 -16z" />
    <glyph glyph-name="uniFD3E" unicode="&#xfd3e;" horiz-adv-x="432" 
d="M325 -105q-128 57 -196.5 170.5t-68.5 246.5t68.5 247t196.5 170v-112q-70 -48 -106.5 -131t-37.5 -176q0 -93 37.5 -173t106.5 -128v-114z" />
    <glyph glyph-name="uniFD3F" unicode="&#xfd3f;" horiz-adv-x="432" 
d="M106 -105v114q69 49 107 129t37 169q0 95 -36.5 178t-107.5 131v113q129 -57 197 -172.5t68 -251.5q0 -130 -69 -242t-196 -168z" />
    <glyph glyph-name="uni0625.alt" horiz-adv-x="266" 
d="M70 0v578l126 67v-645h-126zM13 -327l31 58h30q-14 29 -9.5 55t23.5 43q22 20 52.5 21.5t62.5 -23.5v-58q-23 21 -46 23.5t-31 -9.5q-21 -19 6 -52h102l-31 -58h-190z" />
    <glyph glyph-name="dotcenterar" 
d="M66 -39q-30 0 -48 18t-18 49q0 29 18 47t48 18t47.5 -18t17.5 -47q0 -30 -17.5 -48.5t-47.5 -18.5z" />
    <glyph glyph-name="shaddaDammaar" 
d="M288 1024q41 0 66.5 -30t25.5 -72q0 -48 -27.5 -78.5t-63.5 -36.5l-224 -41l45 97l98 17q-11 21 -11 42q0 42 26.5 72t64.5 30zM291 895q19 14 19 33q0 27 -20 27q-8 0 -14.5 -7.5t-6.5 -19.5q0 -20 22 -33zM224 647v60l71 39v-103q0 -36 -25.5 -57t-61.5 -21
q-31 0 -52 14q-22 -14 -51 -14q-35 -1 -60.5 20t-25.5 58v43l70 39v-78q0 -14 17 -14q16 0 16 13v51l70 39v-90q0 -13 16 -13t16 14z" />
    <glyph glyph-name="shaddaDammatanar" 
d="M437 917q4 -64 -38.5 -103t-102.5 -39q-64 -2 -112 43l-21 -35l-76 52l63 94h30q35 -50 83 -56q-9 21 -9 44q0 41 26.5 71t64.5 30q41 0 65.5 -29t26.5 -72zM349 889q18 14 18 34q0 26 -20 26q-8 0 -14.5 -7t-6.5 -19q0 -23 23 -34zM252 647v60l71 39v-103
q0 -36 -25.5 -57t-61.5 -21q-31 0 -52 14q-22 -14 -51 -14q-35 -1 -60.5 20t-25.5 58v43l70 39v-78q0 -14 17 -14q16 0 16 13v51l70 39v-90q0 -13 16 -13t16 14z" />
    <glyph glyph-name="shaddaFathaar" 
d="M298 910l-45 -96l-263 -48l45 97zM210 647v60l71 39v-103q0 -36 -25.5 -57t-61.5 -21q-31 0 -52 14q-22 -14 -51 -14q-35 -1 -60.5 20t-25.5 58v43l70 39v-78q0 -14 17 -14q16 0 16 13v51l70 39v-90q0 -13 16 -13t16 14z" />
    <glyph glyph-name="shaddaFathatanar" 
d="M309 1051l-45 -96l-264 -48l45 96zM-23 766l45 97l263 47l-45 -96zM210 647v60l71 39v-103q0 -36 -25.5 -57t-61.5 -21q-31 0 -52 14q-22 -14 -51 -14q-35 -1 -60.5 20t-25.5 58v43l70 39v-78q0 -14 17 -14q16 0 16 13v51l70 39v-90q0 -13 16 -13t16 14z" />
    <glyph glyph-name="shaddaKasraar" 
d="M86 565q-35 -1 -60.5 20t-25.5 58v43l70 39v-78q0 -14 17 -14q16 0 16 13v51l70 39v-90q0 -13 16 -13t16 14v60l71 39v-103q0 -36 -25.5 -57t-61.5 -21q-31 0 -52 14q-22 -14 -51 -14zM24 495l263 47l-45 -96l-263 -48z" />
    <glyph glyph-name="shaddaKasratanar" 
d="M86 565q-35 -1 -60.5 20t-25.5 58v43l70 39v-78q0 -14 17 -14q16 0 16 13v51l70 39v-90q0 -13 16 -13t16 14v60l71 39v-103q0 -36 -25.5 -57t-61.5 -21q-31 0 -52 14q-22 -14 -51 -14zM291 543l-45 -96l-264 -48l45 96zM-41 258l45 97l263 47l-45 -96z" />
    <glyph glyph-name="bowl" horiz-adv-x="679" 
d="M337 -151q-126 0 -196.5 80t-70.5 189q0 79 37 138l120 25q-40 -68 -40 -143q0 -70 39.5 -119t110.5 -49q70 0 108 35.5t38 97.5v275l126 66v-341q0 -112 -74 -183t-198 -71z" />
    <glyph glyph-name="rightjoining" horiz-adv-x="147" 
d="M65 0q-85 0 -134.5 51t-49.5 136v191l126 66v-251q0 -39 16 -55.5t54 -16.5h70v-121h-82z" />
    <glyph glyph-name="ampersandar" horiz-adv-x="814" 
d="M356 -106q-87 0 -144 45q-112 84 -112 251q0 212 241 349q-49 47 -59.5 109t24.5 107.5t104 46.5q60 1 95.5 -33t35.5 -91q0 -79 -75 -141q248 -137 248 -359q0 -185 -149 -278v45q75 81 75 230q0 91 -61.5 171.5t-174.5 134.5q-108 -48 -166.5 -125t-58.5 -167
q0 -119 72 -182q44 -39 105 -39q51 0 73.5 17t25.5 60q-23 -14 -51 -14q-40 0 -71 18t-46.5 46.5t-23 62.5t0.5 68.5t24.5 63t48.5 46.5t73 18q65 0 103 -37t38 -101l-2 -141q-3 -181 -193 -181zM406 573q26 17 41 43.5t15 52.5q0 25 -13 40.5t-38 15.5q-33 0 -45.5 -27
t-1 -63t41.5 -62zM404 109q34 0 53 32v68q0 36 -11.5 51.5t-35.5 15.5q-22 0 -36 -17t-17.5 -41.5t-0.5 -49.5t16 -42t32 -17z" />
  </font>
</defs>
</svg>
